<?xml version="1.0" encoding="utf-8"?>
<!-- Generator: Adobe Illustrator 15.0.2, SVG Export Plug-In . SVG Version: 6.00 Build 0)  -->
<!DOCTYPE svg PUBLIC "-//W3C//DTD SVG 1.1//EN" "http://www.w3.org/Graphics/SVG/1.1/DTD/svg11.dtd">
<svg version="1.1" id="Ebene_1" xmlns="http://www.w3.org/2000/svg" xmlns:xlink="http://www.w3.org/1999/xlink" x="0px" y="0px"
	 width="512px" height="305.958px" viewBox="0 101.61 512 305.958" enable-background="new 0 101.61 512 305.958"
	 xml:space="preserve">
<metadata><?xpacket begin="﻿" id="W5M0MpCehiHzreSzNTczkc9d"?>
<x:xmpmeta xmlns:x="adobe:ns:meta/" x:xmptk="Adobe XMP Core 5.0-c060 61.134777, 2010/02/12-17:32:00        ">
   <rdf:RDF xmlns:rdf="http://www.w3.org/1999/02/22-rdf-syntax-ns#">
      <rdf:Description rdf:about=""
            xmlns:dc="http://purl.org/dc/elements/1.1/">
         <dc:format>image/svg+xml</dc:format>
         <dc:title>
            <rdf:Alt>
               <rdf:li xml:lang="x-default">Druck</rdf:li>
            </rdf:Alt>
         </dc:title>
      </rdf:Description>
      <rdf:Description rdf:about=""
            xmlns:xmp="http://ns.adobe.com/xap/1.0/"
            xmlns:xmpGImg="http://ns.adobe.com/xap/1.0/g/img/">
         <xmp:MetadataDate>2017-04-13T15:08:39+03:00</xmp:MetadataDate>
         <xmp:ModifyDate>2017-04-13T15:08:39+03:00</xmp:ModifyDate>
         <xmp:CreateDate>2017-04-13T15:08:38+03:00</xmp:CreateDate>
         <xmp:CreatorTool>Adobe Illustrator CS5</xmp:CreatorTool>
         <xmp:Thumbnails>
            <rdf:Alt>
               <rdf:li rdf:parseType="Resource">
                  <xmpGImg:width>256</xmpGImg:width>
                  <xmpGImg:height>156</xmpGImg:height>
                  <xmpGImg:format>JPEG</xmpGImg:format>
                  <xmpGImg:image>/9j/4AAQSkZJRgABAgEASABIAAD/7QAsUGhvdG9zaG9wIDMuMAA4QklNA+0AAAAAABAASAAAAAEA&#xA;AQBIAAAAAQAB/+4ADkFkb2JlAGTAAAAAAf/bAIQABgQEBAUEBgUFBgkGBQYJCwgGBggLDAoKCwoK&#xA;DBAMDAwMDAwQDA4PEA8ODBMTFBQTExwbGxscHx8fHx8fHx8fHwEHBwcNDA0YEBAYGhURFRofHx8f&#xA;Hx8fHx8fHx8fHx8fHx8fHx8fHx8fHx8fHx8fHx8fHx8fHx8fHx8fHx8fHx8f/8AAEQgAnAEAAwER&#xA;AAIRAQMRAf/EAaIAAAAHAQEBAQEAAAAAAAAAAAQFAwIGAQAHCAkKCwEAAgIDAQEBAQEAAAAAAAAA&#xA;AQACAwQFBgcICQoLEAACAQMDAgQCBgcDBAIGAnMBAgMRBAAFIRIxQVEGE2EicYEUMpGhBxWxQiPB&#xA;UtHhMxZi8CRygvElQzRTkqKyY3PCNUQnk6OzNhdUZHTD0uIIJoMJChgZhJRFRqS0VtNVKBry4/PE&#xA;1OT0ZXWFlaW1xdXl9WZ2hpamtsbW5vY3R1dnd4eXp7fH1+f3OEhYaHiImKi4yNjo+Ck5SVlpeYmZ&#xA;qbnJ2en5KjpKWmp6ipqqusra6voRAAICAQIDBQUEBQYECAMDbQEAAhEDBCESMUEFURNhIgZxgZEy&#xA;obHwFMHR4SNCFVJicvEzJDRDghaSUyWiY7LCB3PSNeJEgxdUkwgJChgZJjZFGidkdFU38qOzwygp&#xA;0+PzhJSktMTU5PRldYWVpbXF1eX1RlZmdoaWprbG1ub2R1dnd4eXp7fH1+f3OEhYaHiImKi4yNjo&#xA;+DlJWWl5iZmpucnZ6fkqOkpaanqKmqq6ytrq+v/aAAwDAQACEQMRAD8A5hrn/OUX5y6jqU91ba3+&#xA;jbV3YwWVvBb8IkJ+FOTxs7UHdmOKs5/Iz/nJvzAnmmez/MXXll0Ke2dorqeJFMNxHRloYIwxDryF&#xA;D3pT3VW/mp/zl9ruozTab5CQ6Xpoqh1aZA13L2JjRuSQqe1QW7/CdsVfPur67retXRu9Y1C51G6N&#xA;az3UrzPv/lOWOFUx8qeffOXlO7S68vavc6e6GpjikPovvWkkJrG49mU4q+2vyD/PK1/MrSJra+jj&#xA;s/M+mqpvrWMnhLEaAXEQO4Xlsy1PE033GBXrGKvnH/nKf85vPPkzWdI0PyxeLpq3Vq13dXSxxyyP&#xA;WRo1QeqrhQvpk1Arvirwy0/5yY/O22uEm/xI8wU1MU1vaujDwI9Lv7GuKvuvyhrb695S0TXJIxE+&#xA;q2FrfPEvRTcwrKVFa9OVMVTbFXlX/OSH5m615A8gx32hsker6heJZW87oJBCpR5XlCMGRiBHxAbx&#xA;r2xV8nD/AJyS/O0OGHmiaoNd4LUj7jFTFX13/wA48/mDrfnv8uINX1wpJqkFzNZ3E6IsYlMQVlk4&#xA;LRVJWQA0AFe2Ks78xaqdI8v6nqwT1Tp9pPdCImgYwRtJxr78cVfCF/8A85N/nZd3Uk48xNbK5JW3&#xA;gt7ZY0BNQqgxs1B/lEn3xV7X/wA4xfnt5s81avq2g+cL6O7SzsW1K31KVYoGjjhkRJUkKCNCtJQ3&#xA;IiooanwVST85P+cuLxrmfRPy7ZYrdKpP5gdAzue/1WNxRV/4scVPYDZiq+a9X13W9aujd6xqFzqN&#xA;0a1nupXmff8AynLHCr9CvyNvLq8/KPyrcXczzztYRhpZCWYhCVWpO5ooAwKznFXYq7FXYq7FXYq7&#xA;FXYq7FXYq7FXYq/K7CrsVeq/lr/zjd+Ynnqzj1OKKLSNFlFYb++5L6y+MMShncf5Rop7HArIvPP/&#xA;ADiH588u6VPqmlXtvr9vaoZJ7eFHhueCirMkTc1em+wfl4A4q8Iwq9A/IPzLceX/AM3PLV1E/CO6&#xA;vI9PuQTRTFeH0Dy9lLhvmMCv0RxV8b/85sf8p9oX/bKH/UTLir52wq/Sf8p//JWeTf8Ath6b/wBQ&#xA;keBWVYq+dv8AnNj/AJQHQv8Atqj/AKhpcVfG+FX27/zhx/5KSb/tq3P/ACahwK9V/ML/AJQHzL/2&#xA;yr7/AKhnxV+ZuFW1d1JKsVJBBoabHYjFWReTPy885+dL1rPy1pU2oPHT1pVASGKvT1JnKxpXsC1T&#xA;2xV6PH/ziH+cblQ1vYxhqVLXa0WvjxDdPbAr7F/LrytN5U8jaJ5dnmW4n0y1SCaZKhGkAq/GtDx5&#xA;E0r2xVkWKuxV2KuxV2KuxV2KuxV2KuxV2KuxV+V2FXoP5C+T9L83fmpomjaqvqacWkubmDtKttE0&#xA;ojP+S7IA3tXAr9Do444o1jjUJGgCoigBQoFAAB0AxVdir83/AM49Hs9H/NLzRp1kgjtIdQmMMSii&#xA;osjeoEUDsvKg9sKpd+Xv/KfeWv8Atq2P/USmKv0xwK+N/wDnNj/lPtC/7ZQ/6iZcVfO2FX6T/lP/&#xA;AOSs8m/9sPTf+oSPArKsVfO3/ObH/KA6F/21R/1DS4q+N8Kvt3/nDj/yUk3/AG1bn/k1DgV6r+YX&#xA;/KA+Zf8AtlX3/UM+KvzNwqyH8vvJt95z85aV5Zs29OXUZuDzUqI4kBeaSnfhGrNTv0xV+jPlPyno&#xA;PlPQbXQ9DtVtbC1UKqqBydqANJIwA5u9Ksx64FTfFXYq7FXYq7FXYq7FXYq7FXYq7FXYq7FXYq/K&#xA;7Cr1/wD5xR/8nZpH/GC8/wCoZ8CvvLFXYq/O38/f/JyebP8AmOb/AIiuFUg/L3/lPvLX/bVsf+ol&#xA;MVfpjgV8b/8AObH/ACn2hf8AbKH/AFEy4q+dsKv0n/Kf/wAlZ5N/7Yem/wDUJHgVlWKvnb/nNj/l&#xA;AdC/7ao/6hpcVfG+FX27/wA4cf8AkpJv+2rc/wDJqHAr1X8wv+UB8y/9sq+/6hnxV+ZuFXuP/OHk&#xA;Mcn5vF3FWh0y6eM+DFo0/wCIscCvuDFXYq7FXYq7FXYq7FXYq7FXYq7FXYq7FXYq7FX5XYVev/8A&#xA;OKP/AJOzSP8AjBef9Qz4FfeWKuxV+dv5+/8Ak5PNn/Mc3/EVwqkH5e/8p95a/wC2rY/9RKYq/THA&#xA;r43/AOc2P+U+0L/tlD/qJlxV87YVfpP+U/8A5Kzyb/2w9N/6hI8CsqxV87f85sf8oDoX/bVH/UNL&#xA;ir43wq+3f+cOP/JSTf8AbVuf+TUOBXqv5hf8oD5l/wC2Vff9Qz4q/M3Cr3T/AJw4/wDJtzf9sq5/&#xA;5Ow4FfbuKuxV2KuxV2KuxV2KuxV2KuxV2KuxV2KuxV2Kvyuwq9b/AOcVp4Yvzt0QSuE9WK8jjrtV&#xA;jayED6aYFfe2KuxV+dP563EFx+cHmySBxIg1GWMsvTlHRHH0MpGKpJ+Xv/KfeWv+2rY/9RKYVfpj&#xA;gV8b/wDObH/KfaF/2yh/1Ey4q+dsKv0i/J66gufyo8nyQtyRdGsYiR/PFbpG4+hkIwKy/FXzj/zm&#xA;1d2y+S/L9o0ii5l1JpY4a/E0ccDq7AeCmRQfnir48wq+3f8AnDj/AMlJN/21bn/k1DgV6r+YX/KA&#xA;+Zf+2Vff9Qz4q/M3Cr33/nC1Eb81NSLAEpolwyE9j9atRUfQTgV9qYq7FXYq7FXYq7FXYq7FXYq7&#xA;FXYq7FXYq7FXYq/K7CqK0vU9Q0rUrXU9Ona2v7KVJ7W4T7SSRnkrCvgRir6s8kf85p6O9lHb+dNJ&#xA;nhvkXi99poSSKQgfaaGR42jr/ks30dgqK89/85l+VodIng8m2d1d6vKhWC7u41ht4Sw/vOJZnkK/&#xA;y8QPfFXyHcXE9zcS3FxI0s8ztJLK5qzO5qzMT1JJwqyz8n9In1b80/KljCpctqlrLIF6iKCQTSn6&#xA;I42OBX6Q4q+P/wDnNuwuE83eXL9lpbXGnywRt4vBMXcfQJ1xV83YVe9fkJ/zksPIel/4a8x2s17o&#xA;CO0ljPbcTPbGRizpwdkV42c8uoINetaAK9S8zf8AOZ/kOzs2/wAPabe6rfMv7sTqtrAp/wAtiZHN&#xA;PAJ9OKvlj8wPzD8z+fNfk1rzBcCWcjhb28YKwQRA1EcKEniv01PUknCrGsVfbv8Azhx/5KSb/tq3&#xA;P/JqHAr1X8wv+UB8y/8AbKvv+oZ8VfmbhV7/AP8AOFf/AJNPVf8Athz/APUXaYFfaWKuxV2KuxV2&#xA;KuxV2KuxV2KuxV2KuxV2KuxV2KvyuwqyP8vvImr+evNVp5a0mWCC9u1kdZbpmWJVijMjFiiyN0Xa&#xA;i9cVV/PX5X+ePI961t5i0uW2j5cYr5B6lrLXcenMvwEkfsn4h3AxViuKuAJNBuTir69/5xT/ACQ1&#xA;LQmfzz5ltmtdQniMWjWMq8ZIopB+8nkU7qzr8Kg7ha16jAr6UxV5t+fn5VH8xfI72FmVTXNPf63p&#xA;MjnirSAUeFm7LKu1ezcT2xV8A6ppWpaTqNxpup20lnf2rmO4tplKSIw7MpwqhcVTTy55X8w+ZdTj&#xA;0zQdPm1G+k+zDApag/mY/ZRfFmIGKvUPzC/5xm81+Sfy/t/NF5dJeXazBdV0+1RnW1hkHwSGavx8&#xA;WHF/hoCwoSN8CvG8Kvub/nEPTr2z/KCOS5haJby/ubi25gjnEVjjDivYtG1MCvUPPNtcXXknzBbW&#xA;8bTXE+m3kcMSAszu8DqqqB1JJoMVfmXLFJFI0cqNHIpoyMCCD7g4VfRv/OE9hd/4z12/+rv9UXTf&#xA;R+tcT6YkeeNgnOlKkITT2wK+wsVdirsVdirsVdirsVdirsVdirsVdirsVdirsVfldhV6/wD84o/+&#xA;Ts0j/jBef9Qz4Ffd1za211byW91Ek9vKOMsMqh0ZT2ZWqCMVec61/wA44/kvq8zzz+WobeZzXlZy&#xA;TWiipqaRwOkX/C4qmPlP8kPyr8qXKXmi+XreO9joY7ucyXUqsP2ka4aTgf8AUpirOcVdirsVY15v&#xA;/LbyJ5wRR5k0W21F0HGOd1KTqvXis0ZSVR7BsVYfaf8AOL35I21yZx5e9U1qkc11dvGvtxMtGH+t&#xA;XFXomheXNA0CyFjoenW2mWg39C1iSFSfEhAKn3OKpgyqylWAZWFGU7gg9jiqWDyp5WBqNHsQR0P1&#xA;aH/mnFUzVVVQqgKqiiqNgAOwxVvFXYq7FXYq7FXYq7FXYq7FXYq7FXYq7FXYq7FXYq7FXYq/OXWP&#xA;yT/NjStSnsJfKmqXLQMV9eztJ7mBwDQMksKuhB69cVer/wDOLX5T+fdP/MmLzDrOi3ekabp1vOC9&#xA;/C9s0kk0ZiVI0lCu2zliaU2xV9h4q7FXYq7FXYq7FXYq7FXYq7FXYq7FVssiRRPLIeMcalnbwAFS&#xA;cVfKd3/znDdfWZPqnlKP6sGIhMt6fUK9iwWGgJ8B08Tir0D8kv8AnJP/AJWR5luPL91oX6MuY7Z7&#xA;uG4juPXRljZFZGUxxlT8dQanFXt2KuxV2KuxV2KuxV2KuxV2KuxV2KuxV2KuxV2KuxV2KuxVAap5&#xA;g0HSeH6V1K10/wBT7H1qeOHl8vUZa4q7S/MGg6tz/RWpWuoen9v6rPHNx+fps1MVR+KuxV2KuxVS&#xA;uru1tITNdTR28K/aklYIo+ZYgYqkp/MHyECQfMmlAjYg3tvWv/B4qm1jqem6hF61hdw3cQ/3ZBIs&#xA;i7+6EjFUTirsVQurf8cq8/4wS/8AEDir8uMKvcP+cPLiGL83uEjhXn026jhB/acNG9B/sUY/RgV9&#xA;w4q7FXYq7FXYq7FXYq7FXYq7FXYq7FXYq7FUhfz/AORE1FNMfzJpa6lI4jSyN7bidnY0VRHz5kk9&#xA;BTFXwVqX58fm7f39xeN5p1C3M7l/Qt5mhhSp2VI0IVVGKs4/Jb/nJXzJoPmnh541m81Py5dxskzT&#xA;1uZIJQKxypX46VHFlHjWlRiqt+af/OWnm/zBNLYeUC/l/Rq8RdKR9fmHiZASIR7R/F/ldsVeEXV3&#xA;dXlxJc3cz3FzKeUs8rF3ZvFmYkk4VXWN/fafdx3lhcS2l3CeUNxA7RyI3iroQwPyxV9lf84y/n3f&#xA;eclk8qeZ5RL5htIjNZX5opu4E2dXAAHqx1BqPtLv1UkhX0BirFPzO/MLTvy/8oXPmS/t5LuOF44o&#xA;rWEgNJJK3FRybZR3J/Xir5K85/8AOXX5m64Xh0b0PLlk1QBbKJrkqezTyg7+6IhxV47rGv67rVyb&#xA;rWNRudRuDU+tdzPM+/u5Y4VQGKorTNV1TSrxL3TLuaxvI/7u5tpGikX5OhBxV9Rf84+f85Oapf6t&#xA;aeUfPM4uHvGWHS9bYBX9U7JDc0oG5nZX68vtVrUBX1LiqF1b/jlXn/GCX/iBxV+XGFVa0vLuzuY7&#xA;qznktrmFuUU8LMkiMO6spBB+WKsk/wCVsfmn/wBTlrn/AHErv/qpir67/wCcTvO3mXzT+X96dfvZ&#xA;NRudNv2toLu4YvM0RijkCyO1WchnPxMa4Fe2Yq+Lv+cifzk/May/NXVtG0jXLvStM0r0YLe3tJDC&#xA;CWhSR3cpQsS7nr0G2KsQ8jfnp+a9v5w0d5vMl7fQPeQRz2l3K00MkckgV0ZXr1U9RuO2Kv0AxV2K&#xA;vm//AJy4/NDzj5Xn0LRfLuoS6Wt5HLdXlzbnhM/BlSNA4+JVHxE067Yq+dE/O383EdXHm7VCVIID&#xA;XLsKjfcEkH5HFX3v+WuuX+vfl95d1nUGD31/p9tPdOoChpXjBdqDYcm3oMVY/wD85A+bdY8qflRr&#xA;Wr6NKbfUh6Nvb3K05R+vMkbOta/EEY8T2O+Kvh0/mx+aZNf8Y65/3Erv/qphV9FfkD/zkNb2n5fa&#xA;5J5/1w3FxokqNYtcSCS/uYplNIYwx9SZlkQ/EenL4iFGwV49+bH/ADkN538+3M9rHcPpHlskrFpN&#xA;s5X1Er1uZBQyk9x9gdh3KrysEg1GxGFXYq7FXsH5ef8AOL35j+cLKLU5li0LSpgHhnvuQllQ9Gjg&#xA;UF6dwX4g9q4FT7zp/wA4eeeND0mbUtG1G31/6uhkms443guCq7n0kJkWQgb05AnsCcVeAkEGh2Iw&#xA;qyv8qddn0L8yfLOqQsUMGo26ykd4ZZBFMvf7UbsMCv0mxVin5q+Tx5w/LzXfLwANxeWzGzr0FzER&#xA;LBv2HqotfbFX59eXPy+87+ZL2Sy0PQ7y+uIXMVwI4mCxODQrLI3FIyD/ADkYVesaB/zhv+aF+gk1&#xA;S50/R1I3iklaeYH/AFYFeP8A5KYFT+7/AOcIfMCwM1p5ptJpx9iOa2kiQn3dXlI/4HFXhPnvyD5m&#xA;8ja9JonmG2EF2qiSJ0bnFLExIWSJx9pTT5joQDhVjyO6OroxV1IKsDQgjoQcVfpL+VPmt/Nn5c+X&#xA;9flbncXlon1tx0NxFWGc/wDI2NsCsh1b/jlXn/GCX/iBxV+XGFU38q+VNf8ANeuW+h6DaNe6ndV9&#xA;KFSqiigszM7lVVVA3JOKvUv+hRPzk/5ZrH/pLX+mBX0r/wA47flZrX5deS7nT9amik1LULtryWKA&#xA;lo4l9NI1TmQOTfBUkbb07VKr1PFX58f85If+Ts80/wDGeH/qGixVhXlP/lKdG/5jrb/k8uFX6eYF&#xA;dir5C/5zc/5Sny1/zAzf8nsVfNeFX6O/kr/5KTyh/wBsq1/5NDArFf8AnK7/AMknq/8Axns/+olM&#xA;VfBmFXYq9O/L3/nHX8zPPFlHqVhaRafpMu8Ooai7QxyjxiRVklceDBOJ8cCvQ9P/AOcJvN5voBqO&#xA;v6eljzH1lrcTPKI6/FwV0RS1OlTir5uwq9L/AOccvLel+YPzg0Kx1SIT2cbTXTQMKq720Lyxhh3X&#xA;mqkjv0wK/QbFXYq/OP8AOrTbTTfzY81Wlogit01GZ0jXYL6p9QgDsAX2GFWP+U/+Up0b/mOtv+Ty&#xA;4q/TzArsVdirsVdir5q/5zc0u2fyz5b1UqBdQXstqrU3Mc0XqEE+xhGKvkPCr7p/5xGvDcfk1axc&#xA;uX1S9u4QN/hq4lp/yVrgV67rDKukXzMQqrbylmOwACHc4q/LnCr3P/nDlVP5uSkgErpdyVJ7H1Ih&#xA;UfQcCvt7FXYq7FX58f8AOSH/AJOzzT/xnh/6hosVYV5T/wCUp0b/AJjrb/k8uFX6eYFdir5C/wCc&#xA;3P8AlKfLX/MDN/yexV814Vfo7+Sv/kpPKH/bKtf+TQwKxX/nK7/ySer/APGez/6iUxV8GYVetf8A&#xA;ONX5YWfnvz9/uUjEuh6NGLy+hYfDM3LjDA3s7VZvFVIwK+9Y444o1jjUJGgCoigBQoFAAB0AxVdi&#xA;r8rsKvX/APnFH/ydmkf8YLz/AKhnwK+8sVdir87fz9/8nJ5s/wCY5v8AiK4VYr5T/wCUp0b/AJjr&#xA;b/k8uKv08wK7FXiH5rf85UeUfJt7Po2jW51/XLdjHcLG4jtYJBsVeajF3U9VRfYsDirwTXP+ctvz&#xA;j1J2NneWmjxmv7uztY22P+Vc/WG+kUxVjc3/ADkH+c0z83813gPSiemg+5EUYqkHmn8yPPXmu2ht&#xA;fMWtXOp21u5lhhnYFFcjjyoABWm2FWN4q+3f+cOP/JSTf9tW5/5NQ4Fev+bP+UW1n/mBuf8Aky2K&#xA;vzDwq90/5w4/8m3N/wBsq5/5Ow4FfbuKuxV2Kvz4/wCckP8Aydnmn/jPD/1DRYqwryn/AMpTo3/M&#xA;dbf8nlwq/TzArsVfIX/Obn/KU+Wv+YGb/k9ir5rwq/R38lf/ACUnlD/tlWv/ACaGBWK/85Xf+ST1&#xA;f/jPZ/8AUSmKvgzCr6o/5waAr51Pf/cZv/0l4FfVOKuxV+V2FXr/APzij/5OzSP+MF5/1DPgV95Y&#xA;q7FX52/n7/5OTzZ/zHN/xFcKsV8p/wDKU6N/zHW3/J5cVfp5gV41/wA5R/mZe+TPISWelTG31nX5&#xA;GtbedDxeKBFBuJUI3DUZUB7cq9Rir4TJJNTuThV6H+Wn5E/mB+YcT3ejW8VtpUb+m2p3rmKAuOqp&#xA;xV3cjvxUgdyMCvT0/wCcI/NpQF/Mlgr0+ILFMwB9ieNfuxVgX5v/APOPuu/lppNjql9qlrqFtezm&#xA;1CwLIjq/BnBIYUIoh74q8qwq+3f+cOP/ACUk3/bVuf8Ak1DgV6/5s/5RbWf+YG5/5Mtir8w8KvdP&#xA;+cOP/Jtzf9sq5/5Ow4FfbuKuxV2Kvz4/5yQ/8nZ5p/4zw/8AUNFirCvKf/KU6N/zHW3/ACeXCr9P&#xA;MCuxV8hf85uf8pT5a/5gZv8Ak9ir5rwq/R38lf8AyUnlD/tlWv8AyaGBWK/85Xf+ST1f/jPZ/wDU&#xA;SmKvgzCr6y/5weRBpvm5wo5maxBam5AWegr7VOBX0/irsVfldhV6/wD84o/+Ts0j/jBef9Qz4Ffe&#xA;WKuxV+dv5+/+Tk82f8xzf8RXCrFfKf8AylOjf8x1t/yeXFX6eYFfHv8Azm1dzN5y8vWhP7mHTnlR&#xA;d9mlnZWP3RLir5wwq/R78l7ayt/yl8oR2aqsLaTaSMF6erLEskx+ZlZiffArM8VfNv8Azm1qVivl&#xA;Ty9phmX6/LftcpBX4vRjhZGcjsOUgGKvkDCr7d/5w4/8lJN/21bn/k1DgV7D5pR5PLOrxoCzvZXC&#xA;qo6kmJgAMVfmDhV7N/ziRfpbfnNZQs/E3tndwKNviIj9am//ABirgV914q7FXYq/Pj/nJD/ydnmn&#xA;/jPD/wBQ0WKsB0a9Wx1exvWFVtbiKYjxEbhv4YVfqFDNFPDHNC4kilUPG67hlYVBHzGBV+Kvjb/n&#xA;NTVbC489aNp8EokurCwJu0U19MzyFkVvBiq8qeBB74q+d8Kv0d/JX/yUnlD/ALZVr/yaGBWK/wDO&#xA;V3/kk9X/AOM9n/1Epir4Mwq+s/8AnB7/AI5Xm3/jPZf8QmwK+nsVdir8rsKvX/8AnFH/AMnZpH/G&#xA;C8/6hnwK+8sVdir87fz9/wDJyebP+Y5v+IrhVivlP/lKdG/5jrb/AJPLir9PMCvkr/nN3RLhNZ8t&#xA;a6Axt5raaxdv2VeJxKoPuwlb7sVfMeFXvn5Mf85S3Xkjy/B5a13TH1TSrQt9RuYJAlxEjsWMZVxx&#xA;kUFjx+JadOlKBWbeYv8AnNzTRaMvlzy3NJdsKLLqMqpGjb7mOEuzj25r88VfNHnHzn5j8467Nrfm&#xA;C8a8v5vhBPwpHGPsxxINkRa7AfM7knCqSYq+3f8AnDj/AMlJN/21bn/k1DgV7m6I6MjqGRgQykVB&#xA;B6gjFX5k+dfLdx5Z83axoE4IfTbuW3Un9pEc+m/ydKMPnhVDeXtf1Ty9rljrelTehqOnzLPbS0qA&#xA;yGtGHdT0Ydxtir6etP8AnOCzGmIbvypI2phaOkV2qwMwHUM0bOoJ7UanicCobyL/AM5ga9q/5g6f&#xA;Ya/Y2On+WtQlFsxiEhlgeT4YpHmd+JUPQP8ACAF37Yq+q8VfBH/OU2kT6d+dWtSSKRFqCW15bM37&#xA;SNbpGxHt6sTj6MVeS4VfQ35R/wDOWd75V0C28veZ9Ok1aysUEVjfW8ircJCookTo/wAMgQbKeQoN&#xA;t8Cpv53/AOc09QurOS08naN+j5ZAVGpX7LLIgI6pAg4Bh2LMw/ycVfNepalqGqahcajqNxJd313I&#xA;0tzcysWd3Y1LMThVDYq/R38lf/JSeUP+2Va/8mhgViv/ADld/wCST1f/AIz2f/USmKvgzCr6+/5w&#xA;j/5RbzL/AMx0P/JnAr6TxV2KvzX1n8rfzF0e+ubO+8uaislqzLJKlrNJEQppzSVVKMh7MDTFXqv/&#xA;ADif5F81r+aUOt3OmXNppmm21x69zcQvEheWMxJGrOBVv3nKg7DFX2nirsVfBv8AzkT5E82W/wCb&#xA;mvXSaTdz2WozLdWd1FBJJHIjxry4sgYVRqqR1xVi/wCXn5fec9U876JaW+jXi1vYHlle3kVIoklV&#xA;pJHZgqhVUV3P44Vfo1gVh35tflzY/mD5JvPL1w4huWpPp12RX0bqOvpuf8k1KN/kk98Vfnx5t8n+&#xA;YvKWtT6Nr9lJZX0B+y4+F1rQSRP9l0bsy4VSbFU+8n+RfNnnHU103y5psuoXBp6jIKRRr/NLK1Ej&#xA;X3Y4q9U/Mv8A5xb8xeTPI9nr1vcPrOoI9NbtbSItHbowqskf7bojCjsV7g0ArgV4wNI1YkAWU5J2&#xA;AET1r92FX3R/ziz5X1zy7+VMMGs2klldXt5PeR20ylJVicIiF0O6lvTrQ9sCvXsVfN//ADlL+ROp&#xA;eY5B528r2xudVhiEer6fEKyzxxiiTRKN3kRfhK9SoFNxuq+QHR43aORSjoSrKwoQRsQQcKrcVZb5&#xA;K/Kn8wPOsqjy9o091bk8WvnHpWq+NZ5OKVHgCT7Yq/RDyrp+o6b5Y0fTtTnF1qVlZW1ve3QJIlni&#xA;iVJJKmhPJwTvgV5X/wA5Lfktdef9Bt9V0NFbzLo6uIYSQv1m3b4mh5H9tW+KOppuR3rir4dvrC+0&#xA;+8msr+3ktLy3YpPbTo0ciMOqsjAMD88KqGKs8/Ln8lPP/n65j/RGntBphP73WLoNFaqoNDxcishH&#xA;8sYJ8aYFZd+d/wDzjnf/AJfWWlX+jyXWtWE0Zi1S69IUiuQdjwjqUjkB+HkTQj7W4xV5FFomsyyL&#xA;FFYXMkjkKiLE5Yk9AABvhV+jf5VaVf6T+WvljTdQha3vrTTbaK5gf7UcgiHJG91OxwKx3/nI3y3r&#xA;XmL8otY03RbWS+1AvbSxWkI5SSLFcIzhF7kLVqe3jir4j/5VP+af/Um65/3Dbv8A6p4VfV3/ADiJ&#xA;5M8z+W/KGsvr+mz6XLfXqtb213G0MxSOIAuY3AZQS1BUdsCvecVdirsVdirsVdirsVdirsVdirGP&#xA;P/8Ayrn9ED/Hf6M/RlT6X6V9Hjzpv6Xq78/9TfFXjtn/ANCX/pBfS/RXr89vW+uejWvf1f3NPnti&#xA;r3Pyt/hT9DQ/4V+o/ob/AHR+jPS+rdB9n0Pg6UxVNsVdirsVdirsVeZ/mJ/0L7+kH/xx+gv0rt6n&#xA;1n0frtNuPPh+/p4VxVJvLf8A0Kl9aX9E/wCGfrXL939Y9Dny2+x9Z3r4ccVexQej6MfocfQ4j0uF&#xA;OHCnw8abUp0piq/FXYqwb8xv+VM0X/H/AOhfW4H0f0l6H1nhv/dcv31P9TFWKeV/+hVPro/Q3+Gv&#xA;rlf3fr+jz5bf3f1nev8Aq74q9ij9P019Onp0HDjTjxptSnbFV2KuxV2KuxV2KuxV2KuxV//Z</xmpGImg:image>
               </rdf:li>
            </rdf:Alt>
         </xmp:Thumbnails>
      </rdf:Description>
      <rdf:Description rdf:about=""
            xmlns:xmpMM="http://ns.adobe.com/xap/1.0/mm/"
            xmlns:stRef="http://ns.adobe.com/xap/1.0/sType/ResourceRef#"
            xmlns:stEvt="http://ns.adobe.com/xap/1.0/sType/ResourceEvent#">
         <xmpMM:InstanceID>xmp.iid:51B9B0ED4120E7118E1C88EB883F746D</xmpMM:InstanceID>
         <xmpMM:DocumentID>xmp.did:51B9B0ED4120E7118E1C88EB883F746D</xmpMM:DocumentID>
         <xmpMM:OriginalDocumentID>uuid:5D20892493BFDB11914A8590D31508C8</xmpMM:OriginalDocumentID>
         <xmpMM:RenditionClass>proof:pdf</xmpMM:RenditionClass>
         <xmpMM:DerivedFrom rdf:parseType="Resource">
            <stRef:instanceID>xmp.iid:e777ca8e-7ef0-6045-af26-9725282e483e</stRef:instanceID>
            <stRef:documentID>xmp.did:e777ca8e-7ef0-6045-af26-9725282e483e</stRef:documentID>
            <stRef:originalDocumentID>uuid:5D20892493BFDB11914A8590D31508C8</stRef:originalDocumentID>
            <stRef:renditionClass>proof:pdf</stRef:renditionClass>
         </xmpMM:DerivedFrom>
         <xmpMM:History>
            <rdf:Seq>
               <rdf:li rdf:parseType="Resource">
                  <stEvt:action>saved</stEvt:action>
                  <stEvt:instanceID>xmp.iid:e777ca8e-7ef0-6045-af26-9725282e483e</stEvt:instanceID>
                  <stEvt:when>2017-04-11T15:00:42+02:00</stEvt:when>
                  <stEvt:softwareAgent>Adobe Illustrator CC 2017 (Windows)</stEvt:softwareAgent>
                  <stEvt:changed>/</stEvt:changed>
               </rdf:li>
               <rdf:li rdf:parseType="Resource">
                  <stEvt:action>saved</stEvt:action>
                  <stEvt:instanceID>xmp.iid:51B9B0ED4120E7118E1C88EB883F746D</stEvt:instanceID>
                  <stEvt:when>2017-04-13T15:08:39+03:00</stEvt:when>
                  <stEvt:softwareAgent>Adobe Illustrator CS5</stEvt:softwareAgent>
                  <stEvt:changed>/</stEvt:changed>
               </rdf:li>
            </rdf:Seq>
         </xmpMM:History>
      </rdf:Description>
      <rdf:Description rdf:about=""
            xmlns:illustrator="http://ns.adobe.com/illustrator/1.0/">
         <illustrator:StartupProfile>Print</illustrator:StartupProfile>
      </rdf:Description>
      <rdf:Description rdf:about=""
            xmlns:xmpTPg="http://ns.adobe.com/xap/1.0/t/pg/"
            xmlns:stDim="http://ns.adobe.com/xap/1.0/sType/Dimensions#"
            xmlns:xmpG="http://ns.adobe.com/xap/1.0/g/">
         <xmpTPg:HasVisibleOverprint>False</xmpTPg:HasVisibleOverprint>
         <xmpTPg:HasVisibleTransparency>False</xmpTPg:HasVisibleTransparency>
         <xmpTPg:NPages>1</xmpTPg:NPages>
         <xmpTPg:MaxPageSize rdf:parseType="Resource">
            <stDim:w>512.000000</stDim:w>
            <stDim:h>305.958008</stDim:h>
            <stDim:unit>Pixels</stDim:unit>
         </xmpTPg:MaxPageSize>
         <xmpTPg:PlateNames>
            <rdf:Seq>
               <rdf:li>Cyan</rdf:li>
               <rdf:li>Magenta</rdf:li>
               <rdf:li>Yellow</rdf:li>
               <rdf:li>Black</rdf:li>
            </rdf:Seq>
         </xmpTPg:PlateNames>
         <xmpTPg:SwatchGroups>
            <rdf:Seq>
               <rdf:li rdf:parseType="Resource">
                  <xmpG:groupName>Группа образцов по умолчанию</xmpG:groupName>
                  <xmpG:groupType>0</xmpG:groupType>
               </rdf:li>
            </rdf:Seq>
         </xmpTPg:SwatchGroups>
      </rdf:Description>
      <rdf:Description rdf:about=""
            xmlns:pdf="http://ns.adobe.com/pdf/1.3/">
         <pdf:Producer>Adobe PDF library 10.01</pdf:Producer>
      </rdf:Description>
   </rdf:RDF>
</x:xmpmeta>
                                                                                                    
                                                                                                    
                                                                                                    
                                                                                                    
                                                                                                    
                                                                                                    
                                                                                                    
                                                                                                    
                                                                                                    
                                                                                                    
                                                                                                    
                                                                                                    
                                                                                                    
                                                                                                    
                                                                                                    
                                                                                                    
                                                                                                    
                                                                                                    
                                                                                                    
                                                                                                    
                           
<?xpacket end="w"?>
	</metadata>
<g>
	<path fill="#020203" d="M20.322,403.052c6.773,0,7.903-5.081,7.903-9.597v-75.078c0-10.161,14.112-17.5,23.144-17.5
		c11.29,0,16.936,7.903,16.936,19.193v74.514c0,5.646,1.693,8.468,7.903,8.468h11.854c5.646,0,7.339-3.387,7.339-9.597v-84.675
		c0-18.628-11.29-33.306-30.482-33.306c-12.419,0-23.709,6.774-31.612,12.419c-1.693,1.129-3.951,0.564-5.08-1.693
		c-1.13-4.516-3.388-6.773-7.903-6.773H9.032c-5.645,0-7.903,2.258-7.903,7.902v106.69c0,5.646,1.693,8.468,7.903,8.468
		L20.322,403.052L20.322,403.052L20.322,403.052z"/>
	<path fill="#020203" d="M213.381,395.149v-60.966c0-13.548,0-27.66-5.646-39.515c-5.645-11.854-16.935-19.193-38.386-19.193
		c-12.983,0-22.016,2.823-42.901,10.726c-1.129,0.564-3.952,2.822-2.259,6.774l4.517,12.983c1.129,2.258,2.822,2.822,5.08,2.258
		c7.903-3.387,23.145-7.339,31.612-7.339c17.499,0,20.887,7.903,20.887,23.709c0,2.259-1.13,3.388-3.388,3.388h-11.29
		c-37.821,0-52.498,15.241-52.498,42.901c0,21.451,12.983,36.692,31.612,36.692c12.419,0,22.015-6.209,29.918-11.854
		c2.258-1.693,3.951-1.129,5.081,1.693c1.129,3.952,3.951,6.21,7.902,6.21h11.29C210.558,403.052,213.381,400.23,213.381,395.149
		 M186.285,365.231c0,6.209-9.597,16.935-23.709,16.935c-14.113,0-16.371-7.338-16.371-18.063c0-9.032,6.774-14.678,19.193-14.678
		h16.935c3.952,0,3.952,2.823,3.952,3.388V365.231L186.285,365.231z"/>
	<path fill="#020203" d="M239.347,364.102c0,19.757,8.468,42.901,32.741,42.901c9.596,0,15.241-1.129,30.482-7.903
		c2.259-0.564,3.952-3.951,2.823-6.773l-6.21-11.854c-1.129-2.258-2.822-3.387-6.21-1.693c-21.45,7.902-26.531-1.693-26.531-20.322
		v-47.982c0-3.951,2.258-6.773,6.21-6.773h12.983c5.645,0,8.467-2.259,8.467-6.774v-10.161c0-5.08-2.822-7.902-7.902-7.902h-13.548
		c-3.388,0-6.21-1.694-6.21-6.21v-11.29c0-5.645,0-8.468-6.209-8.468h-13.548c-5.081,0-6.774,0-6.774,8.468L239.347,364.102
		L239.347,364.102z"/>
	<path fill="#020203" d="M94.836,199.268v-64.353c0-18.629-12.983-33.306-31.612-33.306c-12.419,0-22.579,6.774-30.482,12.419
		c-1.693,1.129-5.08,1.129-5.08-1.693s-1.694-6.774-5.081-6.774H9.032c-5.08,0-7.903,2.823-7.903,7.903v137.173
		c0,5.646,2.823,7.903,7.903,7.903h11.854c5.08,0,7.339-3.951,7.339-9.032V224.67c0-1.693,2.822-2.822,5.08-1.693
		c8.468,5.08,20.322,10.161,30.482,10.161C81.852,233.138,94.836,218.461,94.836,199.268 M68.304,187.978
		c0,11.29-5.646,20.322-16.936,20.322c-9.596,0-23.144-4.517-23.144-17.5v-46.288c0-7.339,11.289-18.629,22.579-18.629
		c16.371,0,17.5,15.241,17.5,20.887V187.978L68.304,187.978L68.304,187.978z"/>
	<path fill="#020203" d="M193.623,105.561c-4.516,0-7.338,3.388-7.338,9.597V190.8c0,9.597-14.113,17.5-23.145,17.5
		c-11.29,0-16.936-9.032-16.936-19.758v-74.514c0-5.645-2.258-8.468-7.902-8.468h-11.854c-5.646,0-7.339,3.388-7.339,9.597v84.675
		c0,18.629,11.29,33.306,30.483,33.306c12.419,0,23.708-6.21,31.611-11.854c1.693-1.693,4.516-1.129,5.081,1.693
		c1.129,3.951,3.951,6.774,7.902,6.774h11.29c5.081,0,7.903-2.823,7.903-7.903V114.029c0-5.645-1.693-8.468-7.903-8.468H193.623
		L193.623,105.561z"/>
	<path fill="#020203" d="M266.443,154.108c0-11.29,11.29-25.967,25.967-25.967h7.339c4.516,0,6.774-2.258,6.774-6.209V106.69
		c0-2.822-2.259-5.08-5.081-5.08c-11.29,0-22.016,6.774-31.048,15.806c-1.693,1.693-4.516,1.129-4.516-1.693
		c0-5.08-2.258-10.161-7.903-10.161h-11.29c-5.08,0-7.902,2.823-7.902,7.903v108.948c0,4.516,0.564,6.209,6.209,6.209h14.112
		c5.081,0,6.21-1.693,6.21-6.209L266.443,154.108z"/>
	<path fill="#020203" d="M397.971,279.427c-4.516,0-7.338,3.387-7.338,9.596v75.644c0,9.596-14.113,17.499-23.145,17.499
		c-11.29,0-16.936-9.032-16.936-19.758v-74.514c0-5.645-2.258-8.467-7.902-8.467h-11.854c-5.646,0-7.339,3.387-7.339,9.596v84.675
		c0,18.629,11.29,33.306,30.483,33.306c12.419,0,23.709-6.209,31.611-11.854c1.693-1.693,4.517-1.129,5.081,1.693
		c1.129,3.952,3.951,6.774,7.902,6.774h11.29c5.081,0,7.903-2.822,7.903-7.903V287.894c0-5.645-1.693-8.467-7.903-8.467H397.971
		L397.971,279.427z"/>
	<path fill="#020203" d="M470.792,327.974c0-11.854,11.29-25.967,25.967-25.967h7.339c4.516,0,6.773-2.259,6.773-6.21v-15.806
		c0-2.822-2.258-5.081-5.08-5.081c-11.29,0-22.016,6.774-31.048,15.807c-1.693,1.693-4.516,1.129-4.516-1.694
		c0-5.08-2.258-10.16-7.903-10.16h-11.289c-5.081,0-7.903,2.822-7.903,7.902v108.948c0,4.517,0.564,6.21,6.209,6.21h14.112
		c5.081,0,6.21-1.693,6.21-6.21L470.792,327.974z"/>
</g>
</svg>
