<?xml version="1.0" encoding="utf-8"?>
<!-- Generator: Adobe Illustrator 15.1.0, SVG Export Plug-In . SVG Version: 6.00 Build 0)  -->
<!DOCTYPE svg PUBLIC "-//W3C//DTD SVG 1.1//EN" "http://www.w3.org/Graphics/SVG/1.1/DTD/svg11.dtd">
<svg version="1.1" id="Ebene_1" xmlns="http://www.w3.org/2000/svg" xmlns:xlink="http://www.w3.org/1999/xlink" x="0px" y="0px"
	 width="404px" height="144px" viewBox="0 0 404 144" enable-background="new 0 0 404 144" xml:space="preserve">
<path opacity="0.25" fill="#FFFFFF" d="M276.935,8.999v9.863h-10.187c-3.828,0-6.047,0.661-8.272,2.636
	c-1.915,1.979-2.872,5.594-2.872,10.524c0,4.941,0.957,8.557,2.872,10.859c1.595,1.64,4.444,2.304,7.315,2.304h4.769l15.284-36.179
	h15.92l17.82,43.418V9.006h16.56l18.777,31.907V9.006h10.824v46.043h-0.008h-15.275L330.401,20.51v34.539h-21.648L304.62,44.84
	h-22.285l-4.125,10.209h-12.419c-5.09,0-11.782-1.325-15.604-5.275c-3.494-3.943-5.399-9.211-5.399-17.425
	c0-6.913,0.949-13.153,5.719-18.089c3.184-3.616,8.919-5.261,16.241-5.261H276.935 M286.162,34.98h14.646l-7.323-18.092
	L286.162,34.98 M239.373,55.049H228.54V8.999h10.833V55.049z M204.036,8.999c5.423,0,9.235,0,12.73,1.978
	c3.502,2.295,5.728,5.257,5.735,10.521c0,7.228-4.763,10.851-7.634,12.169c2.233,0.987,4.139,2.628,5.089,3.941
	c1.588,2.31,1.907,4.285,1.907,8.231v9.217H211.04v-5.928c0-2.628,0.318-6.582-1.581-8.883c-1.595-1.648-4.139-1.976-7.96-1.976
	h-11.462v16.78h-10.501V8.999H204.036 M190.029,28.726h13.058c2.224,0,3.82,0,5.4-0.98c1.275-0.654,1.913-2.302,1.913-4.269
	c0-1.979-0.638-3.293-1.913-4.281c-1.269-0.66-3.494-0.66-5.4-0.66h-13.058V28.726 M171.89,8.999v9.537h-24.83v8.215h24.511v9.544
	H147.06v9.218h24.83v9.536h-35.655V8.999H171.89 M128.279,8.999v46.05H117.45V18.862l-15.598,36.187H92.62L77.026,18.862v36.187
	H55.381L51.242,44.84H28.967l-4.14,10.209H13.361l19.104-46.05h15.913l18.139,43.418V8.999h17.189l14.011,31.246l13.05-31.246
	H128.279 M32.784,34.98h14.632l-7.322-18.092L32.784,34.98 M309.709,88.251v9.54h-25.141v8.561h24.503v9.213h-24.503v9.214h25.141
	v9.534H274.07V88.251H309.709 M393.112,88.258v9.867h-19.733c-1.915,0-3.191,0-4.14,0.669c-0.951,0.979-1.589,1.967-1.589,3.623
	c0,1.641,0.958,2.628,2.22,3.281c1.274,0.334,2.551,0.661,4.146,0.661h5.72c6.047,0,9.866,1.313,12.42,3.623
	c1.913,2.302,3.189,5.265,3.189,9.867c0,9.867-6.047,14.463-16.878,14.463h-20.691v-9.875h20.691c1.915,0,3.502-0.32,4.146-0.979
	c0.64-0.661,1.27-1.648,1.27-2.971s-0.63-2.628-1.27-3.28c-0.645-0.655-1.913-0.988-3.828-0.988
	c-9.867-0.334-22.286,0.333-22.286-14.144c0-6.578,4.147-13.817,15.283-13.817H393.112 M351.412,88.258v9.867h-19.735
	c-1.913,0-3.183,0-4.133,0.669c-1.275,0.979-1.594,1.967-1.594,3.623c0,1.641,0.956,2.628,2.233,3.281
	c1.261,0.334,2.536,0.661,4.132,0.661h5.727c6.047,0,9.875,1.313,12.42,3.623c1.906,2.302,3.182,5.265,3.182,9.867
	c0,9.859-6.053,14.463-16.877,14.463h-20.691v-9.875h20.691c1.913,0,3.19-0.32,4.147-0.979c0.623-0.661,1.275-1.648,1.275-2.971
	s-0.652-2.628-1.275-3.28c-0.638-0.655-1.915-0.988-3.828-0.988c-9.86-0.334-22.286,0.333-22.286-14.144
	c0-6.578,3.828-13.817,15.282-13.817H351.412 M249.551,88.266c5.416,0,9.556,0.327,13.05,2.309c3.51,1.976,5.423,4.923,5.423,10.194
	c0,7.239-4.785,11.181-7.634,12.169c2.53,0.987,4.443,2.644,5.401,3.949c1.275,2.295,1.58,4.283,1.58,8.553v8.888h-10.498v-5.591
	c0-2.962,0-6.912-1.906-9.222c-1.589-1.641-3.82-1.975-7.634-1.975h-11.471v16.787h-10.815V88.266H249.551 M235.862,108.334
	l13.051-0.326c1.913,0,3.509,0,5.096-0.661c1.27-0.987,2.227-2.636,2.227-4.611c0-1.975-0.957-3.281-2.227-3.941
	c-1.282-0.988-3.183-0.988-5.096-0.988h-13.051V108.334 M202.13,88.266c8.271,0,17.819,2.644,17.819,15.146
	c0,12.822-9.229,15.449-18.458,15.449h-13.368v15.466h-20.691l-13.05-15.146l-13.692,15.146H98.354V88.266h42.975l13.053,15.139
	l13.687-15.139H202.13 M177.622,130.369V93.203L161.07,111.29L177.622,130.369 M108.863,106.352h23.552v9.213h-23.552v9.214h26.415
	l12.1-13.505l-11.773-13.482h-26.742V106.352 M188.123,109.647h14.007c3.82,0,6.357-2.301,6.357-6.235
	c0-3.95-2.537-5.606-6.357-5.606h-14.007V109.647 M284.935,0.999h-8h-10.187c-8.236,0-14.732,1.783-19.375,5.309V0.999h-8H228.54h-8
	v2.923c-5.272-2.923-10.482-2.923-16.504-2.923H179.89h-8h-35.611h-8h-17.512h-5.329l-2.053,4.917l-5.929,14.195l-6.45-14.385
	l-2.12-4.727h-5.18H66.517h-8v8v3.516l-2.757-6.6l-2.054-4.916h-5.328H32.465h-5.343l-2.047,4.934L5.971,51.983l-4.59,11.066h11.98
	h11.466h5.389l2.025-4.994l2.114-5.215h11.498l2.115,5.215l2.024,4.994h5.389h21.645h8v-5.408l0.247,0.574l2.083,4.834h5.264h9.232
	h5.264l2.083-4.834l0.251-0.582v5.416h8h10.785h8h35.301h8h10.501h8v-8v-8.78h3.462c0.629,0,1.14,0.012,1.552,0.029
	c0.015,0.615,0.005,1.262-0.001,1.719c-0.005,0.388-0.01,0.76-0.01,1.111v5.928v8h8h10.824h8v-0.007h9.509h8V57.85
	c6.528,4.638,14.81,5.199,18.418,5.199h12.419h5.396l2.021-5.003l2.104-5.206h11.496l2.109,5.211l2.024,4.998h5.392h21.648h8v-8
	v-4.837l5.143,8.855l2.313,3.982h4.604h15.275h8l0.008-8V9.006v-8h-8h-10.824h-8v8v2.54l-3.883-6.597l-2.32-3.943h-4.574h-16.56h-8
	v8v2.858l-2.419-5.895l-2.037-4.963h-5.364h-15.92h-0.909V0.999z M264.237,27.156c0.375-0.184,1.001-0.294,2.511-0.294h2.868
	l-4.355,10.31c-0.409-0.022-0.741-0.066-0.994-0.115c-0.294-0.779-0.663-2.3-0.663-5.035
	C263.604,29.086,264.026,27.677,264.237,27.156 M317.709,80.251h-8H274.07h-8v3.101c-5.305-2.842-11.064-3.086-16.52-3.086h-24.504
	h-8v3.306c-4.008-2.158-9.031-3.306-14.917-3.306h-34.061h-3.552l-2.382,2.635l-7.611,8.418l-7.137-8.277l-2.393-2.775h-3.665
	H98.354h-8v8v46.062v8h8h42.336h3.553l2.382-2.635l7.613-8.423l7.133,8.279l2.394,2.778h3.667h20.691h8v-8v-7.466h5.368
	c6.744,0,11.788-1.308,15.556-3.344v10.81v8h8h10.815h8v-8v-8.787h3.471c0.594,0,1.07,0.01,1.449,0.026
	c0.091,1.058,0.091,2.388,0.091,3.17v5.591v8h8h10.498h8v-0.015h34.338h8h19.058c5.022,0,9.394-0.873,13.01-2.528v2.528h8h20.691
	c15.578,0,24.878-8.397,24.878-22.463c0-5.398-1.333-9.905-4.066-13.725h1.833v-8v-9.867v-8h-8h-21.329
	c-4.94,0-9.05,1.079-12.371,2.879v-2.879h-8h-21.33c-4.949,0-9.057,1.037-12.373,2.791V80.251z"/>
</svg>
