<?xml version="1.0" encoding="utf-8"?>
<!-- Generator: Adobe Illustrator 22.1.0, SVG Export Plug-In . SVG Version: 6.00 Build 0)  -->
<svg version="1.1" id="Ebene_1" xmlns="http://www.w3.org/2000/svg" xmlns:xlink="http://www.w3.org/1999/xlink" x="0px" y="0px"
	 viewBox="0 0 32 32" style="enable-background:new 0 0 32 32;" xml:space="preserve">
<style type="text/css">
	.st0{fill:#141312;}
</style>
<path class="st0" d="M16,0.1C7.2,0.1,0.1,7.2,0.1,16S7.2,31.9,16,31.9S31.9,24.8,31.9,16S24.8,0.1,16,0.1z M16,30.7
	C7.8,30.7,1.3,24.2,1.3,16S7.8,1.3,16,1.3c8.1,0,14.7,6.6,14.7,14.7C30.7,24.2,24.2,30.7,16,30.7z"/>
<g>
	<path class="st0" d="M9.2,20.6l-1.8-1.8l8.8-8.8l8.8,8.8l-1.8,1.8l-7-7L9.2,20.6z"/>
</g>
</svg>
