<?xml version="1.0" encoding="utf-8"?>
<!-- Generator: Adobe Illustrator 15.0.2, SVG Export Plug-In . SVG Version: 6.00 Build 0)  -->
<!DOCTYPE svg PUBLIC "-//W3C//DTD SVG 1.1//EN" "http://www.w3.org/Graphics/SVG/1.1/DTD/svg11.dtd">
<svg version="1.1" id="Ebene_1" xmlns="http://www.w3.org/2000/svg" xmlns:xlink="http://www.w3.org/1999/xlink" x="0px" y="0px"
	 width="512px" height="512px" viewBox="0 0 512 512" enable-background="new 0 0 512 512" xml:space="preserve">
<path fill="#F7F7F7" d="M404.8,138.4c-1.6,0-4.8,0-4.8,1.6c-3.2,3.2-3.2,6.4,0,9.601l89.6,99.2H6.399c-4.8,0-6.399,1.6-6.399,6.399
	s1.6,6.4,6.399,6.4H488l-88,99.2c-1.601,1.6-3.2,3.199-3.2,4.8c0,1.6,1.6,3.2,3.2,4.8c1.6,1.6,3.2,3.2,4.8,3.2s3.2-1.601,4.8-3.2
	l100.8-110.4c1.6-1.6,1.6-3.199,1.6-4.8c0-1.6,0-4.8-1.6-4.8c0,0-12.8-14.4-100.8-110.4C409.599,139.999,408,138.4,404.8,138.4z"/>
</svg>
