<svg id="Ebene_1" data-name="Ebene 1" xmlns="http://www.w3.org/2000/svg" viewBox="0 0 32 32"><defs><style>.cls-1{fill:#141312;}.cls-2{fill:#fff;}</style></defs><title>Zeichenfläche 1</title><circle class="cls-1" cx="16" cy="16" r="16"/><path class="cls-2" d="M12.3,7.6h8.1V9.2L17,14.4a4.16,4.16,0,0,1,3.8,4.3v1.2a4.47,4.47,0,0,1-4.7,4.6,4.51,4.51,0,0,1-4.8-4.6.9.9,0,0,1,.9-.9,1,1,0,0,1,.9.9A2.69,2.69,0,0,0,16,22.7a2.75,2.75,0,0,0,2.9-2.8V18.7A2.62,2.62,0,0,0,16,16.1H14.7V14.6l3.4-5.1H12.3a.9.9,0,0,1-.9-.9A1,1,0,0,1,12.3,7.6Z"/></svg>