<svg id="Ebene_1" data-name="Ebene 1" xmlns="http://www.w3.org/2000/svg" viewBox="0 0 32 32"><defs><style>.cls-1{fill:#141312;}.cls-2{fill:#fff;}</style></defs><title>Zeichenfläche 1</title><circle class="cls-1" cx="16" cy="16" r="16"/><path class="cls-2" d="M15.8,7.5a4.54,4.54,0,0,1,4.8,4.7c0,2.6-2.2,4-4.3,5.3-1.7,1-3.4,2.1-3.4,3.7v1.4H20a1,1,0,0,1,.9,1,.84.84,0,0,1-.9.9H11V21.3c0-2.5,1.8-3.7,3.8-4.9s3.8-2.4,3.8-4a2.63,2.63,0,0,0-2.9-2.9,3,3,0,0,0-2.9,2.4.9.9,0,0,1-.9.9.84.84,0,0,1-.9-.9A4.52,4.52,0,0,1,15.8,7.5Z"/></svg>