<?xml version="1.0" encoding="utf-8"?>
<!-- Generator: Adobe Illustrator 15.1.0, SVG Export Plug-In . SVG Version: 6.00 Build 0)  -->
<!DOCTYPE svg PUBLIC "-//W3C//DTD SVG 1.1//EN" "http://www.w3.org/Graphics/SVG/1.1/DTD/svg11.dtd">
<svg version="1.1" id="Ebene_1" xmlns="http://www.w3.org/2000/svg" xmlns:xlink="http://www.w3.org/1999/xlink" x="0px" y="0px"
	 width="390px" height="125px" viewBox="0 0 390 125" enable-background="new 0 0 390 125" xml:space="preserve">
<g opacity="0.25">
	<path fill="#FFFFFF" d="M281.957,6.679c-6.198-2.376-15.908-4.924-28.033-4.924c-30.906,0-52.678,15.903-52.862,38.695
		c-0.175,16.847,15.539,26.248,27.404,31.857c12.175,5.745,16.269,9.414,16.212,14.544c-0.079,7.86-9.725,11.449-18.711,11.449
		c-12.522,0-19.173-1.774-29.442-6.155l-4.032-1.862l-4.391,26.252c7.305,3.271,20.815,6.105,34.841,6.254
		c32.879,0,54.223-15.722,54.466-40.062c0.117-13.341-8.215-23.49-26.26-31.858c-10.935-5.424-17.63-9.044-17.558-14.537
		c0-4.873,5.668-10.086,17.909-10.086c10.23-0.16,17.64,2.119,23.415,4.493l2.8,1.353L281.957,6.679"/>
	<path fill="#FFFFFF" d="M362.16,3.904h-24.168c-7.487,0-13.089,2.088-16.379,9.723l-46.451,107.455h32.843
		c0,0,5.37-14.447,6.584-17.619c3.59,0,35.499,0.054,40.059,0.054c0.935,4.101,3.806,17.565,3.806,17.565h29.021L362.16,3.904z
		 M323.592,79.48c2.585-6.759,12.464-32.778,12.464-32.778c-0.188,0.312,2.565-6.789,4.144-11.191l2.117,10.109
		c0,0,5.987,27.988,7.239,33.86H323.592z"/>
	<polygon fill="#FFFFFF" points="137.25,121.047 156.806,3.791 188.083,3.791 168.514,121.047 	"/>
	<path fill="#FFFFFF" d="M111.016,3.878l-30.621,79.96l-3.263-16.251c-5.7-18.73-23.462-39.025-43.319-49.187l28,102.546
		l33.093-0.038l49.241-117.03H111.016"/>
	<path fill="#FFFFFF" d="M51.985,3.804H1.55l-0.399,2.44C40.389,15.95,66.353,39.405,77.13,67.587L66.165,13.704
		C64.27,6.279,58.779,4.064,51.985,3.804"/>
</g>
</svg>
