<?xml version="1.0" encoding="utf-8"?>
<!-- Generator: Adobe Illustrator 15.0.2, SVG Export Plug-In . SVG Version: 6.00 Build 0)  -->
<!DOCTYPE svg PUBLIC "-//W3C//DTD SVG 1.1//EN" "http://www.w3.org/Graphics/SVG/1.1/DTD/svg11.dtd">
<svg version="1.1" id="Ebene_1" xmlns="http://www.w3.org/2000/svg" xmlns:xlink="http://www.w3.org/1999/xlink" x="0px" y="0px"
	 width="22.501px" height="13.487px" viewBox="0 39.296 22.501 13.487" enable-background="new 0 39.296 22.501 13.487"
	 xml:space="preserve">
<g>
	<path d="M0.849,52.608c0.295,0,0.34-0.219,0.34-0.422v-3.313c0-0.436,0.62-0.771,1.012-0.771c0.512,0,0.749,0.357,0.749,0.851
		v3.284c0,0.252,0.078,0.371,0.339,0.371H3.81c0.252,0,0.326-0.151,0.326-0.422V48.45c0-0.822-0.509-1.477-1.34-1.477
		c-0.553,0-1.054,0.301-1.402,0.553c-0.075,0.055-0.186,0.033-0.219-0.064c-0.045-0.193-0.152-0.293-0.337-0.293h-0.5
		C0.086,47.167,0,47.274,0,47.524v4.713c0,0.252,0.065,0.369,0.339,0.369L0.849,52.608L0.849,52.608z"/>
	<path d="M9.357,52.261v-2.688c0-0.598,0-1.23-0.253-1.75c-0.251-0.512-0.74-0.854-1.699-0.854c-0.564,0-0.968,0.12-1.881,0.469
		c-0.056,0.031-0.166,0.133-0.109,0.297l0.205,0.576c0.047,0.1,0.123,0.133,0.23,0.1c0.349-0.143,1.022-0.34,1.394-0.34
		c0.772,0,0.924,0.35,0.924,1.045c0,0.1-0.053,0.141-0.152,0.141H7.525c-1.665,0-2.307,0.678-2.307,1.906
		c0,0.945,0.578,1.621,1.404,1.621c0.556,0,0.982-0.271,1.329-0.521c0.087-0.074,0.183-0.057,0.219,0.064
		c0.054,0.186,0.173,0.281,0.349,0.281H9.02C9.246,52.608,9.357,52.489,9.357,52.261 M8.169,50.933c0,0.26-0.435,0.75-1.044,0.75
		c-0.622,0-0.729-0.311-0.729-0.805c0-0.406,0.293-0.643,0.85-0.643h0.75c0.174,0,0.174,0.117,0.174,0.15L8.169,50.933L8.169,50.933
		z"/>
	<path d="M10.524,50.88c0,0.879,0.38,1.902,1.456,1.902c0.416,0,0.676-0.053,1.342-0.338c0.086-0.031,0.174-0.172,0.12-0.293
		l-0.271-0.521c-0.045-0.09-0.119-0.152-0.284-0.076c-0.939,0.346-1.177-0.064-1.177-0.895v-2.107c0-0.176,0.101-0.297,0.271-0.297
		h0.567c0.248,0,0.382-0.094,0.382-0.305v-0.445c0-0.23-0.121-0.338-0.36-0.338h-0.587c-0.162,0-0.282-0.076-0.282-0.262v-0.488
		c0-0.252,0-0.373-0.271-0.373h-0.6c-0.217,0-0.302,0-0.302,0.381v4.455H10.524L10.524,50.88z"/>
	<path d="M4.147,43.63v-2.854c0-0.824-0.579-1.479-1.404-1.479c-0.556,0-0.99,0.306-1.342,0.556
		c-0.074,0.055-0.216,0.055-0.216-0.063c0-0.135-0.065-0.299-0.228-0.299H0.349C0.12,39.491,0,39.612,0,39.853v6.056
		c0,0.241,0.119,0.356,0.349,0.356h0.51c0.218,0,0.328-0.172,0.328-0.391v-1.135c0-0.078,0.132-0.121,0.216-0.066
		c0.382,0.229,0.904,0.438,1.342,0.438C3.569,45.11,4.147,44.456,4.147,43.63 M2.958,43.128c0,0.488-0.248,0.893-0.76,0.893
		c-0.414,0-1.012-0.207-1.012-0.772v-2.043c0-0.33,0.5-0.817,0.987-0.817c0.733,0,0.784,0.674,0.784,0.914L2.958,43.128
		L2.958,43.128z"/>
	<path d="M8.485,39.491c-0.207,0-0.316,0.141-0.316,0.426v3.316c0,0.426-0.62,0.783-1.021,0.783c-0.512,0-0.742-0.394-0.742-0.881
		V39.86c0-0.248-0.086-0.369-0.348-0.369H5.536c-0.25,0-0.316,0.152-0.316,0.424v3.725c0,0.814,0.502,1.465,1.34,1.465
		c0.555,0,1.046-0.281,1.393-0.533c0.074-0.075,0.185-0.053,0.219,0.066c0.055,0.176,0.173,0.295,0.338,0.295h0.511
		c0.227,0,0.339-0.119,0.339-0.361v-4.713c0-0.248-0.078-0.369-0.339-0.369H8.485V39.491z"/>
	<path d="M11.71,41.626c0-0.51,0.491-1.143,1.144-1.143h0.326c0.206,0,0.305-0.109,0.305-0.273v-0.684
		c0-0.131-0.089-0.23-0.221-0.23c-0.489,0-0.979,0.307-1.361,0.707c-0.077,0.076-0.195,0.055-0.195-0.063
		c0-0.229-0.088-0.444-0.347-0.444H10.86c-0.229,0-0.337,0.116-0.337,0.356v4.81c0,0.209,0.02,0.272,0.271,0.272h0.63
		c0.22,0,0.283-0.063,0.283-0.272v-3.035L11.71,41.626L11.71,41.626z"/>
	<path d="M17.501,47.167c-0.208,0-0.316,0.143-0.316,0.422v3.324c0,0.42-0.622,0.781-1.022,0.781c-0.51,0-0.739-0.393-0.739-0.883
		v-3.273c0-0.25-0.088-0.371-0.349-0.371h-0.523c-0.249,0-0.315,0.152-0.315,0.422v3.725c0,0.818,0.502,1.467,1.341,1.467
		c0.555,0,1.045-0.278,1.393-0.53c0.075-0.076,0.184-0.058,0.217,0.062c0.055,0.176,0.175,0.293,0.337,0.293h0.511
		c0.229,0,0.341-0.117,0.341-0.354v-4.713c0-0.248-0.078-0.369-0.341-0.369L17.501,47.167L17.501,47.167z"/>
	<path d="M20.726,49.302c0-0.512,0.489-1.145,1.144-1.145h0.327c0.207,0,0.304-0.109,0.304-0.271v-0.688
		c0-0.129-0.089-0.229-0.22-0.229c-0.49,0-0.979,0.309-1.36,0.707c-0.075,0.075-0.196,0.059-0.196-0.063
		c0-0.229-0.088-0.445-0.346-0.445h-0.501c-0.229,0-0.339,0.117-0.339,0.357v4.811c0,0.207,0.021,0.271,0.271,0.271h0.633
		c0.219,0,0.282-0.064,0.282-0.271L20.726,49.302L20.726,49.302z"/>
</g>
</svg>
