<?xml version="1.0" encoding="utf-8"?>
<!-- Generator: Adobe Illustrator 15.1.0, SVG Export Plug-In . SVG Version: 6.00 Build 0)  -->
<!DOCTYPE svg PUBLIC "-//W3C//DTD SVG 1.1//EN" "http://www.w3.org/Graphics/SVG/1.1/DTD/svg11.dtd">
<svg version="1.1" id="Ebene_1" xmlns="http://www.w3.org/2000/svg" xmlns:xlink="http://www.w3.org/1999/xlink" x="0px" y="0px"
	 width="890px" height="275px" viewBox="0 0 890 275" enable-background="new 0 0 890 275" xml:space="preserve">
<g opacity="0.25">
	<path fill="#FFFFFF" d="M156.023,45.297l-28.416,38.621c0,0,147.417,0,154.953,0c7.85,0,7.692,2.983,3.925,8.164
		c-3.925,5.338-10.362,14.443-14.287,19.781c-2.041,2.669-5.652,7.693,6.437,7.693c12.716,0,63.425,0,63.425,0
		s10.205-13.973,18.839-25.59c11.618-15.856,0.942-48.668-40.661-48.668C282.717,45.297,156.023,45.297,156.023,45.297
		L156.023,45.297z"/>
	<path fill="#FFFFFF" d="M116.146,171.049l57.146-77.555c0,0,63.269,0,70.804,0c7.85,0,7.693,2.983,3.925,8.164
		c-3.925,5.338-10.519,14.287-14.444,19.624c-2.041,2.669-5.651,7.693,6.437,7.693c12.716,0,94.981,0,94.981,0
		c-7.85,10.833-33.44,42.074-79.439,42.074C218.036,171.049,116.146,171.049,116.146,171.049L116.146,171.049z"/>
	<path fill="#FFFFFF" d="M443.166,128.975l-30.928,42.074h-81.637l30.928-42.074H443.166L443.166,128.975z"/>
	<polygon fill="#FFFFFF" points="568.29,119.398 368.437,119.398 423.228,45.297 504.864,45.297 473.466,87.842 510.045,87.842 
		541.287,45.297 622.924,45.297 	"/>
	<path fill="#FFFFFF" d="M561.382,128.975l-30.928,42.074h-81.637l30.928-42.074H561.382L561.382,128.975z"/>
	<polygon fill="#FFFFFF" points="-0.5,145.616 119.915,145.616 113.321,154.564 -0.5,154.564 	"/>
	<polygon fill="#FFFFFF" points="-0.5,128.975 132.16,128.975 125.566,137.923 -0.5,137.923 	"/>
	<polygon fill="#FFFFFF" points="-0.5,162.258 107.669,162.258 101.075,171.049 -0.5,171.049 	"/>
	<polygon fill="#FFFFFF" points="889.5,154.564 769.714,154.564 776.15,145.616 889.5,145.616 	"/>
	<polygon fill="#FFFFFF" points="889.5,171.049 757.468,171.049 764.062,162.258 889.5,162.258 	"/>
	<polygon fill="#FFFFFF" points="788.396,128.975 889.5,128.975 889.5,137.923 781.802,137.923 	"/>
	<path fill="#FFFFFF" d="M736.117,45.297l-54.635,74.258h-86.504l54.635-74.258H736.117L736.117,45.297z"/>
	<path fill="#FFFFFF" d="M587.914,128.975c0,0-5.966,8.164-8.792,12.089c-10.204,13.814-1.256,29.984,32.341,29.984
		c38.621,0,131.248,0,131.248,0l30.771-42.074H587.914L587.914,128.975z"/>
</g>
<g opacity="0.25">
	<path fill="#FFFFFF" d="M216.152,197.424l24.491,39.249h0.157v-39.249h12.089v58.561h-12.874l-24.334-39.25h-0.157v39.25h-12.088
		v-58.561H216.152L216.152,197.424z"/>
	<path fill="#FFFFFF" d="M262.465,226.625c0.157-2.669,0.785-5.023,2.041-6.75c1.256-1.885,2.669-3.297,4.553-4.396
		c1.884-1.099,3.925-1.883,6.28-2.354s4.71-0.627,7.064-0.627c2.198,0,4.239,0.155,6.437,0.471c2.198,0.315,4.239,0.941,5.966,1.728
		c1.727,0.94,3.297,2.041,4.396,3.611c1.099,1.569,1.727,3.609,1.727,6.122v22.136c0,1.885,0.157,3.769,0.314,5.496
		c0.157,1.727,0.628,3.14,1.099,3.925h-11.774c-0.157-0.628-0.471-1.258-0.471-2.041c-0.157-0.628-0.157-1.413-0.314-2.042
		c-1.884,1.885-4.082,3.298-6.594,4.083c-2.512,0.783-5.024,1.099-7.693,1.099c-2.041,0-3.925-0.314-5.652-0.785
		c-1.727-0.471-3.297-1.256-4.553-2.354s-2.355-2.355-3.14-3.926c-0.785-1.569-1.099-3.453-1.099-5.651
		c0-2.355,0.471-4.396,1.256-5.966c0.785-1.569,1.884-2.825,3.297-3.769c1.413-0.942,2.826-1.569,4.553-2.041
		c1.727-0.472,3.454-0.784,5.181-1.099s3.454-0.471,5.181-0.629c1.727-0.156,3.14-0.471,4.553-0.784
		c1.256-0.313,2.355-0.785,3.14-1.413c0.785-0.628,1.099-1.57,1.099-2.826s-0.157-2.197-0.628-2.982
		c-0.471-0.784-0.942-1.256-1.57-1.727c-0.628-0.472-1.413-0.629-2.355-0.785c-0.942-0.156-1.884-0.156-2.983-0.156
		c-2.354,0-4.082,0.471-5.337,1.412c-1.256,0.941-2.041,2.668-2.355,4.867h-11.618L262.465,226.625L262.465,226.625z
		 M289.311,235.26c-0.471,0.471-1.099,0.785-1.884,1.1c-0.785,0.313-1.57,0.472-2.355,0.627c-0.785,0.158-1.727,0.314-2.669,0.472
		c-0.942,0.158-1.884,0.313-2.826,0.472c-0.942,0.158-1.727,0.313-2.512,0.629c-0.785,0.313-1.57,0.627-2.198,1.1
		c-0.628,0.471-1.099,1.098-1.57,1.727c-0.314,0.785-0.628,1.57-0.628,2.668c0,1.1,0.157,1.885,0.628,2.67
		c0.314,0.785,0.942,1.256,1.57,1.728c0.628,0.471,1.413,0.628,2.355,0.784c0.942,0.156,1.727,0.314,2.669,0.314
		c2.355,0,4.082-0.314,5.338-1.1c1.256-0.786,2.198-1.727,2.826-2.826s0.942-2.197,1.099-3.297c0.157-1.1,0.157-2.041,0.157-2.668
		V235.26L289.311,235.26z"/>
	<path fill="#FFFFFF" d="M330.287,221.287c-1.884,0-3.454,0.471-4.709,1.256c-1.256,0.785-2.355,1.885-3.14,3.297
		c-0.785,1.413-1.413,2.826-1.727,4.396c-0.314,1.568-0.471,3.14-0.471,4.865c0,1.57,0.157,3.141,0.471,4.711
		c0.314,1.569,0.785,2.981,1.57,4.237c0.785,1.257,1.727,2.354,2.983,3.142c1.256,0.785,2.826,1.256,4.553,1.256
		c2.826,0,4.867-0.785,6.437-2.355c1.57-1.568,2.512-3.609,2.826-6.279h11.304c-0.785,5.652-2.983,9.892-6.594,12.873
		c-3.611,2.983-8.164,4.396-13.815,4.396c-3.14,0-6.123-0.471-8.792-1.57c-2.669-1.099-4.867-2.512-6.751-4.396
		c-1.884-1.884-3.297-4.239-4.396-6.907c-1.099-2.67-1.57-5.495-1.57-8.792s0.471-6.28,1.413-9.106
		c0.942-2.824,2.355-5.18,4.239-7.379c1.884-2.039,4.082-3.609,6.751-4.865c2.669-1.1,5.809-1.729,9.263-1.729
		c2.512,0,4.867,0.314,7.222,0.943c2.355,0.627,4.396,1.727,6.28,2.982c1.884,1.411,3.297,2.981,4.396,5.022
		c1.099,2.041,1.727,4.396,2.041,7.063h-11.46C338.136,223.643,335.311,221.287,330.287,221.287z"/>
	<path fill="#FFFFFF" d="M368.75,197.424v22.137h0.314c1.413-2.512,3.297-4.238,5.652-5.338c2.354-1.1,4.553-1.727,6.75-1.727
		c3.14,0,5.652,0.471,7.693,1.256s3.611,2.041,4.709,3.453c1.099,1.57,1.884,3.297,2.355,5.495c0.471,2.198,0.628,4.553,0.628,7.222
		v26.062h-11.617v-24.021c0-3.454-0.471-6.123-1.57-7.85s-2.983-2.512-5.809-2.512c-3.14,0-5.495,0.94-6.908,2.825
		c-1.413,1.884-2.198,5.023-2.198,9.263v22.294h-11.618v-58.561L368.75,197.424L368.75,197.424z"/>
	<path fill="#FFFFFF" d="M416.947,213.596v5.965h0.314c1.413-2.512,3.454-4.238,5.81-5.338c2.354-1.1,4.71-1.727,7.222-1.727
		c3.14,0,5.651,0.471,7.692,1.256s3.61,2.041,4.71,3.453c1.1,1.57,1.884,3.297,2.354,5.495s0.628,4.553,0.628,7.222v26.062H434.06
		v-24.021c0-3.454-0.471-6.123-1.568-7.85c-1.101-1.727-2.983-2.512-5.81-2.512c-3.141,0-5.494,0.94-6.908,2.825
		c-1.413,1.884-2.198,5.023-2.198,9.263v22.294h-11.618v-42.39h10.989V213.596z"/>
	<path fill="#FFFFFF" d="M453.998,226.625c0.157-2.669,0.785-5.023,2.041-6.75c1.256-1.885,2.669-3.297,4.553-4.396
		c1.884-1.099,3.925-1.883,6.28-2.354c2.354-0.472,4.709-0.627,7.063-0.627c2.198,0,4.238,0.155,6.438,0.471
		s4.239,0.941,5.966,1.728c1.884,0.94,3.297,2.041,4.396,3.611c1.1,1.569,1.728,3.609,1.728,6.122v22.136
		c0,1.885,0.157,3.769,0.313,5.496c0.156,1.727,0.628,3.14,1.1,3.925H482.1c-0.155-0.628-0.471-1.258-0.471-2.041
		c0-0.785-0.157-1.413-0.312-2.042c-1.885,1.885-4.082,3.298-6.595,4.083c-2.513,0.783-5.023,1.099-7.692,1.099
		c-2.041,0-3.925-0.314-5.651-0.785c-1.726-0.471-3.297-1.256-4.553-2.354s-2.355-2.355-3.141-3.926
		c-0.784-1.569-1.1-3.453-1.1-5.651c0-2.355,0.471-4.396,1.256-5.966c0.785-1.569,1.884-2.825,3.297-3.769
		c1.413-0.942,2.826-1.569,4.554-2.041s3.453-0.784,5.181-1.099s3.454-0.471,5.182-0.629c1.728-0.156,3.141-0.471,4.554-0.784
		c1.412-0.313,2.354-0.785,3.14-1.413s1.099-1.57,1.099-2.826s-0.155-2.197-0.628-2.982c-0.471-0.784-0.94-1.256-1.568-1.727
		c-0.628-0.472-1.413-0.629-2.355-0.785c-0.94-0.156-1.884-0.156-2.981-0.156c-2.355,0-4.082,0.471-5.339,1.412
		c-1.256,0.941-2.041,2.668-2.354,4.867h-11.617v0.154H453.998z M480.844,235.26c-0.471,0.471-1.099,0.785-1.884,1.1
		c-0.785,0.313-1.569,0.472-2.354,0.627c-0.785,0.158-1.729,0.314-2.67,0.472c-0.941,0.158-1.884,0.313-2.825,0.472
		c-0.941,0.157-1.728,0.313-2.513,0.629c-0.784,0.314-1.569,0.627-2.197,1.1c-0.628,0.471-1.1,1.098-1.569,1.727
		c-0.314,0.785-0.628,1.57-0.628,2.668c0,1.1,0.156,1.885,0.628,2.67c0.312,0.785,0.941,1.256,1.569,1.728
		c0.628,0.471,1.413,0.628,2.354,0.784s1.728,0.314,2.669,0.314c2.354,0,4.081-0.314,5.338-1.1s2.197-1.727,2.825-2.826
		s0.942-2.197,1.101-3.297c0.155-1.1,0.155-2.041,0.155-2.668V235.26L480.844,235.26z"/>
	<path fill="#FFFFFF" d="M513.185,197.424v22.137h0.314c1.413-2.512,3.297-4.238,5.651-5.338s4.553-1.727,6.751-1.727
		c3.14,0,5.651,0.471,7.691,1.256c2.041,0.785,3.611,2.041,4.71,3.453c1.101,1.57,1.885,3.297,2.355,5.495s0.628,4.553,0.628,7.222
		v26.062h-11.618v-24.021c0-3.454-0.471-6.123-1.569-7.85c-1.1-1.727-2.982-2.512-5.809-2.512c-3.141,0-5.495,0.94-6.908,2.825
		c-1.413,1.884-2.198,5.023-2.198,9.263v22.294h-11.616v-58.561L513.185,197.424L513.185,197.424z"/>
	<path fill="#FFFFFF" d="M561.539,213.596v5.809h0.157c1.568-2.198,3.454-3.926,5.495-5.024c2.196-1.256,4.709-1.883,7.378-1.883
		s5.181,0.471,7.379,1.569c2.198,1.098,3.925,2.826,5.023,5.494c1.256-1.885,2.982-3.453,5.182-4.867
		c2.196-1.411,4.71-2.196,7.691-2.196c2.198,0,4.396,0.313,6.28,0.785c1.884,0.471,3.61,1.411,4.866,2.668
		c1.413,1.256,2.512,2.825,3.14,4.71c0.785,1.884,1.101,4.238,1.101,7.064v28.415h-11.618v-24.021c0-1.412,0-2.825-0.156-4.081
		c-0.157-1.256-0.472-2.354-0.942-3.297c-0.47-0.943-1.256-1.728-2.197-2.198s-2.197-0.785-3.925-0.785
		c-1.569,0-2.982,0.314-3.926,0.942c-0.94,0.628-1.884,1.413-2.354,2.512c-0.628,0.942-0.942,2.198-1.1,3.454
		c-0.156,1.256-0.313,2.512-0.313,3.925v23.706h-11.617v-23.863c0-1.256,0-2.512-0.157-3.768c0-1.256-0.313-2.355-0.628-3.454
		c-0.471-1.099-1.1-1.884-2.041-2.512s-2.354-0.942-4.239-0.942c-0.471,0-1.256,0.157-2.196,0.314
		c-0.942,0.156-1.729,0.785-2.669,1.412c-0.942,0.629-1.57,1.728-2.198,2.983c-0.628,1.257-0.942,2.982-0.942,5.023v24.646h-11.46
		V213.75h10.989v-0.154H561.539z"/>
	<path fill="#FFFFFF" d="M637.054,245.777c1.728,1.729,4.238,2.513,7.535,2.513c2.355,0,4.396-0.628,6.123-1.728
		c1.728-1.099,2.669-2.354,3.14-3.769h10.205c-1.569,5.024-4.082,8.792-7.535,10.99c-3.454,2.198-7.535,3.297-12.245,3.297
		c-3.298,0-6.28-0.471-8.949-1.57c-2.669-1.099-5.023-2.512-6.75-4.553c-1.885-2.041-3.297-4.396-4.239-7.063
		c-0.941-2.668-1.57-5.81-1.57-8.949c0-3.141,0.473-6.123,1.57-8.791c1.098-2.67,2.512-5.023,4.396-7.064
		c1.884-2.041,4.238-3.611,6.907-4.711c2.669-1.098,5.651-1.727,8.791-1.727c3.611,0,6.751,0.629,9.421,2.041
		c2.669,1.412,4.866,3.297,6.594,5.652c1.728,2.354,2.982,5.022,3.768,8.006c0.785,2.982,1.101,6.123,0.785,9.42h-30.613
		C634.229,241.383,635.326,244.209,637.054,245.777z M650.241,223.484c-1.413-1.569-3.454-2.354-6.28-2.354
		c-1.884,0-3.454,0.312-4.71,0.941c-1.256,0.628-2.197,1.412-2.982,2.354c-0.784,0.941-1.256,1.884-1.569,2.982
		s-0.472,2.041-0.472,2.825h18.996C652.596,227.253,651.497,225.055,650.241,223.484z"/>
</g>
</svg>
