<?xml version="1.0" encoding="utf-8"?>
<!-- Generator: Adobe Illustrator 15.1.0, SVG Export Plug-In . SVG Version: 6.00 Build 0)  -->
<!DOCTYPE svg PUBLIC "-//W3C//DTD SVG 1.1//EN" "http://www.w3.org/Graphics/SVG/1.1/DTD/svg11.dtd">
<svg version="1.1" id="Ebene_1" xmlns="http://www.w3.org/2000/svg" xmlns:xlink="http://www.w3.org/1999/xlink" x="0px" y="0px"
	 width="890px" height="385px" viewBox="0 0 890 385" enable-background="new 0 0 890 385" xml:space="preserve">
<g id="layer1" opacity="0.25">
	<path id="_92653320" fill="#FFFFFF" d="M1.587,70.385c0-37.744,30.757-68.346,68.678-68.346h748.47
		c37.938,0,68.678,30.603,68.678,68.346v244.246c0,37.722-30.74,68.33-68.678,68.33H70.265c-37.921,0-68.678-30.608-68.678-68.33
		V70.385L1.587,70.385z"/>
	<path id="_92186184" d="M29.774,72.724v239.591c0,23.582,19.225,42.708,42.939,42.708h392.13V30.016H72.713
		C48.999,30.016,29.774,49.142,29.774,72.724L29.774,72.724z M566.163,191.322c0,15.254-7.544,25.738-20.035,25.738
		c-11.035,0-20.234-10.484-20.234-24.454c0-14.338,8.09-24.999,20.234-24.999C559.005,167.608,566.163,178.638,566.163,191.322z
		 M492.82,278.812h33.073v-52.022h0.369c6.265,11.399,18.772,15.623,30.349,15.623c28.484,0,43.739-23.521,43.739-51.829
		c0-23.151-14.516-48.349-40.992-48.349c-15.062,0-29.031,6.072-35.666,19.495h-0.369v-17.272H492.82V278.812z M645.523,209.88
		c0-9.183,8.812-12.662,20.041-12.662c4.958,0,9.745,0.348,13.97,0.546c0,11.207-7.903,22.605-20.411,22.605
		C651.402,220.369,645.523,216.515,645.523,209.88z M712.237,240.213c-1.462-7.528-1.831-15.078-1.831-22.606v-35.66
		c0-29.224-21.128-39.713-45.581-39.713c-14.146,0-26.46,2.024-38.229,6.811l0.562,22.435c9.16-5.157,19.843-7.181,30.503-7.181
		c11.929,0,21.674,3.502,21.873,16.556c-4.225-0.739-10.12-1.302-15.448-1.302c-17.631,0-49.436,3.502-49.436,32.72
		c0,20.781,16.903,30.139,35.836,30.139c13.6,0,22.799-5.311,30.332-17.277h0.37c0,4.979,0.54,9.921,0.739,15.078H712.237z
		 M727.122,278.812c6.805,1.478,13.6,2.223,20.581,2.223c30.333,0,37.491-23.351,46.866-47.435l35.119-89.143h-33.095l-19.667,62.49
		h-0.369l-20.587-62.49h-35.644l38.775,97.956c-2.393,8.461-8.636,13.248-16.731,13.248c-4.61,0-8.637-0.563-13.054-2.024
		L727.122,278.812z"/>
	<path id="_47303032" fill="#FFFFFF" d="M110.574,191.516c0-13.054,6.441-23.908,18.756-23.908
		c14.885,0,21.128,11.945,21.128,22.606c0,14.708-9.376,24.63-21.128,24.63C119.409,214.844,110.574,206.4,110.574,191.516z
		 M182.444,144.457h-29.962v17.272h-0.348c-7.004-11.769-18.409-19.495-32.549-19.495c-29.77,0-43.193,21.343-43.193,49.827
		c0,28.308,16.363,48.152,42.625,48.152c13.252,0,24.282-5.157,32.18-16.363h0.37v5.156c0,18.74-10.291,27.746-29.395,27.746
		c-13.793,0-22.258-2.939-32.356-7.897l-1.655,26.107c7.705,2.763,20.759,6.072,36.581,6.072c38.599,0,57.703-12.69,57.703-52.028
		V144.457z M238.36,104.572h-33.09v24.26h33.09V104.572z M205.287,240.213h33.073v-95.756h-33.073V240.213z M330.482,143.342
		c-3.309-0.541-7.357-1.108-11.207-1.108c-14.338,0-22.605,7.727-28.308,19.865h-0.37v-17.642h-30.139v95.756h33.079v-40.426
		c0-18.755,8.653-29.962,24.084-29.962c3.872,0,7.528,0,11.207,1.086L330.482,143.342z M387.446,219.261
		c-15.254,0-21.497-12.685-21.497-26.83c0-14.339,6.243-27.023,21.497-27.023c15.271,0,21.52,12.684,21.52,27.023
		C408.966,206.576,402.717,219.261,387.446,219.261z M387.446,242.412c31.617,0,55.701-18.364,55.701-49.981
		c0-31.81-24.084-50.197-55.701-50.197c-31.612,0-55.679,18.387-55.679,50.197C331.768,224.048,355.834,242.412,387.446,242.412z"/>
</g>
</svg>
