<?xml version="1.0" encoding="utf-8"?>
<!-- Generator: Adobe Illustrator 15.1.0, SVG Export Plug-In . SVG Version: 6.00 Build 0)  -->
<!DOCTYPE svg PUBLIC "-//W3C//DTD SVG 1.1//EN" "http://www.w3.org/Graphics/SVG/1.1/DTD/svg11.dtd">
<svg version="1.1" id="Ebene_1" xmlns="http://www.w3.org/2000/svg" xmlns:xlink="http://www.w3.org/1999/xlink" x="0px" y="0px"
	 width="407px" height="116px" viewBox="0 0 407 116" enable-background="new 0 0 407 116" xml:space="preserve">
<path opacity="0.25" fill="#FFFFFF" d="M401.551,2.19h-10.843c-0.006,0-0.013,0.002-0.019,0.002l-0.006-0.002
	c-2.479,0-4.995,1.899-5.7,4.314c-0.031,0.101-0.079,0.197-0.104,0.299c0,0-0.258,1.178-0.707,3.225l-14.923,67.64
	c-0.332,1.468-0.549,2.404-0.617,2.656l0.027,0.037c-0.516,2.359,0.901,4.313,3.232,4.532l0.031,0.043h0.393h10.848h0.015
	c2.465,0,4.97-1.882,5.694-4.271c0.036-0.113,0.089-0.224,0.117-0.341l16.25-73.525l-0.025-0.007
	C405.766,4.277,404.146,2.19,401.551,2.19"/>
<path opacity="0.25" fill="#FFFFFF" d="M359.764,24.101c-4.604-2.568-11.801-3.866-21.65-3.866c-4.873,0-9.768,0.391-14.679,1.152
	c-3.606,0.553-3.976,0.644-6.216,1.131c-4.608,1.004-5.32,5.617-5.32,5.617l-1.477,6.088c-0.84,3.892,1.375,3.73,2.362,3.428
	c2.013-0.607,3.104-1.21,7.207-2.14c3.925-0.889,8.069-1.556,11.377-1.529c4.851,0,8.54,0.532,10.992,1.554
	c2.455,1.069,3.667,2.893,3.667,5.498c0.009,0.62,0.024,1.207-0.198,1.716c-0.203,0.477-0.589,0.939-1.749,1.095
	c-6.924,0.412-11.893,1.045-17.877,1.916c-5.903,0.833-11.069,2.257-15.388,4.229c-4.605,2.043-8.049,4.774-10.425,8.238
	c-2.31,3.479-3.471,7.691-3.478,12.655c0,4.689,1.686,8.515,4.948,11.484c3.298,2.932,7.591,4.383,12.782,4.383
	c3.244-0.023,5.785-0.258,7.604-0.713c1.803-0.454,3.767-1.101,5.843-1.999c1.549-0.648,3.224-1.586,4.989-2.762
	c1.77-1.181,2.995-2.019,4.564-3.047l0.059,0.098l-0.442,1.949c-0.001,0.02-0.03,0.029-0.03,0.048l0.015,0.035
	c-0.506,2.352,0.907,4.306,3.236,4.537l0.028,0.04h0.205l0.008,0.012c1.546,0,6.849-0.004,9.326-0.012h1.731
	c0.113,0,0.126-0.035,0.171-0.06c2.377-0.294,4.653-2.23,5.19-4.553l8.853-38.202c0.202-0.899,0.363-1.937,0.459-3.13
	c0.11-1.208,0.24-2.201,0.203-2.919C366.675,30.667,364.353,26.67,359.764,24.101 M338.318,69.622
	c-1.505,0.948-3.094,1.759-4.758,2.45c-2.238,0.901-4.358,1.377-6.322,1.377c-3.014,0-5.328-0.428-6.894-1.339
	c-1.567-0.863-2.389-2.366-2.361-4.516c0-2.482,0.572-4.409,1.758-5.919c1.193-1.453,2.969-2.623,5.171-3.496
	c2.189-0.742,4.883-1.353,7.989-1.791c2.764-0.347,8.227-0.978,8.926-0.982c0.7-0.006,1.165-0.391,0.852,1.472
	c-0.138,0.808-1.716,7.287-2.438,10.23C340.029,67.993,338.855,69.279,338.318,69.622"/>
<path opacity="0.25" fill="#FFFFFF" d="M275.134,37.981c-3.632,2.641-8.729,3.966-15.286,3.966h-3.018
	c-2.606,0.032-4.292-2.079-3.674-4.607l3.636-15.746c0.542-2.492,3.189-4.611,5.763-4.59l3.983-0.021
	c4.652,0.021,8.131,0.798,10.533,2.347c2.362,1.566,3.508,3.991,3.525,7.226C280.605,31.486,278.783,35.278,275.134,37.981
	 M301.295,13.716c-1.511-2.939-3.791-5.304-6.675-7.146c-2.956-1.839-6.473-3.12-10.538-3.869
	c-4.022-0.706-8.808-1.109-14.255-1.121l-25.358,0.012c-2.612,0.044-5.173,2.095-5.777,4.62l-17.047,74.189
	c-0.623,2.521,1.072,4.622,3.638,4.608l12.167-0.022c2.581,0.022,5.211-2.065,5.819-4.586l4.111-18.004
	c0.578-2.522,3.201-4.637,5.824-4.599h3.456c14.842,0,26.349-3.049,34.591-9.119c8.219-6.101,12.354-14.1,12.354-24.054
	C303.58,20.28,302.839,16.62,301.295,13.716"/>
<path opacity="0.25" fill="#FFFFFF" d="M207.49,21.081c-2.596,0-6.002,2.102-7.613,4.641c0,0-17.368,29.775-19.074,32.752
	c-0.928,1.6-1.867,0.583-2.025-0.013c-0.124-0.724-5.382-32.545-5.382-32.545c-0.591-2.561-3.266-4.76-6.613-4.751l-10.83,0.018
	c-2.61,0-4.238,2.091-3.66,4.618c0,0,8.28,46.925,9.896,57.959c0.803,6.103-0.083,7.187-0.083,7.187l-10.735,18.714
	c-1.57,2.535-0.712,4.615,1.887,4.615l12.55-0.009c2.6,0,6.042-2.068,7.588-4.611l48.282-81.658c0,0,4.619-6.977,0.358-6.917
	C219.133,21.122,207.49,21.081,207.49,21.081"/>
<path opacity="0.25" fill="#FFFFFF" d="M139.666,24.043c-4.603-2.567-11.798-3.864-21.648-3.864c-4.874,0-9.767,0.388-14.681,1.151
	c-3.612,0.548-3.974,0.642-6.216,1.13c-4.611,1.006-5.319,5.618-5.319,5.618l-1.481,6.088c-0.837,3.891,1.383,3.73,2.366,3.427
	c2.008-0.607,3.104-1.209,7.21-2.141c3.917-0.887,8.068-1.552,11.372-1.528c4.854,0,8.539,0.529,10.992,1.553
	c2.454,1.07,3.663,2.895,3.663,5.499c0.016,0.621,0.028,1.209-0.19,1.716c-0.204,0.479-0.596,0.939-1.756,1.093
	c-6.916,0.417-11.882,1.048-17.875,1.919c-5.904,0.832-11.069,2.257-15.389,4.227c-4.605,2.044-8.044,4.781-10.416,8.242
	c-2.319,3.476-3.479,7.688-3.483,12.654c0,4.687,1.688,8.513,4.945,11.481c3.303,2.933,7.589,4.386,12.782,4.386
	c3.247-0.026,5.784-0.261,7.611-0.714c1.799-0.458,3.766-1.101,5.834-1.997c1.555-0.65,3.224-1.591,4.994-2.767
	c1.766-1.177,2.996-2.015,4.572-3.044l0.05,0.097l-0.442,1.947c-0.004,0.021-0.029,0.032-0.029,0.055l0.019,0.031
	c-0.506,2.354,0.904,4.308,3.231,4.535l0.029,0.042h0.204l0.007,0.017c1.549,0,6.853-0.008,9.327-0.017h1.729
	c0.117,0,0.135-0.038,0.171-0.062c2.383-0.301,4.652-2.233,5.195-4.547l8.851-38.207c0.201-0.896,0.363-1.935,0.453-3.128
	c0.118-1.21,0.248-2.201,0.212-2.916C146.579,30.608,144.253,26.612,139.666,24.043 M118.22,69.566
	c-1.503,0.948-3.09,1.756-4.757,2.449c-2.237,0.898-4.367,1.374-6.326,1.374c-3.004,0-5.324-0.429-6.893-1.334
	c-1.564-0.866-2.389-2.367-2.364-4.521c0-2.477,0.579-4.409,1.764-5.918c1.195-1.454,2.964-2.624,5.165-3.496
	c2.194-0.745,4.894-1.349,7.993-1.788c2.764-0.348,8.232-0.975,8.93-0.986c0.694-0.002,1.161-0.39,0.848,1.472
	c-0.134,0.808-1.714,7.29-2.438,10.232C119.924,67.939,118.75,69.226,118.22,69.566"/>
<path opacity="0.25" fill="#FFFFFF" d="M55.074,37.68c-3.653,2.67-8.717,4.01-15.292,4.01h-2.973c-2.618,0-4.27-2.076-3.694-4.627
	l3.649-15.723c0.555-2.532,3.168-4.635,5.788-4.61l3.964-0.025c4.634,0,8.156,0.795,10.533,2.371
	c2.341,1.535,3.531,3.958,3.49,7.217C60.607,31.2,58.748,35,55.074,37.68 M81.245,13.447c-1.506-2.939-3.764-5.326-6.645-7.126
	c-2.991-1.846-6.468-3.117-10.521-3.884C60,1.706,55.238,1.348,49.772,1.298l-25.3,0.018c-2.63,0.032-5.205,2.094-5.812,4.622
	L1.602,80.104c-0.588,2.538,1.055,4.636,3.673,4.636h12.12c2.621,0,5.218-2.045,5.806-4.636l4.177-17.998
	c0.558-2.518,3.148-4.599,5.776-4.599h3.463c14.824-0.015,26.321-3.047,34.583-9.118c8.251-6.056,12.376-14.085,12.357-24.014
	C83.576,20.011,82.821,16.362,81.245,13.447"/>
</svg>
