<?xml version="1.0" encoding="utf-8"?>
<!-- Generator: Adobe Illustrator 15.1.0, SVG Export Plug-In . SVG Version: 6.00 Build 0)  -->
<!DOCTYPE svg PUBLIC "-//W3C//DTD SVG 1.1//EN" "http://www.w3.org/Graphics/SVG/1.1/DTD/svg11.dtd">
<svg version="1.1" id="svg4722" xmlns:svg="http://www.w3.org/2000/svg"
	 xmlns="http://www.w3.org/2000/svg" xmlns:xlink="http://www.w3.org/1999/xlink" x="0px" y="0px" width="817.291px"
	 height="260.262px" viewBox="0 0 817.291 260.262" enable-background="new 0 0 817.291 260.262" xml:space="preserve">
<g id="layer1" transform="translate(85.788367,-282.23124)" opacity="0.25">
	<path id="path66" fill="#FFFFFF" d="M186.202,287.231c-11.042,0-21.75,2.538-31.807,7.273
		c-14.362,6.803-27.39,18.146-38.025,33.199c-6.908,9.772-12.823,21.1-17.453,33.77c-8.731,23.915-8.633,43.312,0.293,56.096
		c5.061,7.226,15.583,15.858,36.975,15.883h0.082c38.968,0,68.056-25.542,86.479-75.918c4.866-13.328,11.286-38.204-0.447-54.99
		C215.21,292.397,203.086,287.247,186.202,287.231L186.202,287.231z M421.329,287.231c-11.034,0-21.75,2.538-31.799,7.273
		c-14.37,6.803-27.389,18.146-38.023,33.199c-6.916,9.772-12.825,21.1-17.455,33.77c-8.739,23.915-8.634,43.312,0.301,56.096
		c5.053,7.226,15.566,15.858,36.975,15.883h0.066c38.977,0,68.072-25.542,86.479-75.918c4.882-13.328,11.286-38.204-0.439-54.99
		C450.337,292.397,438.213,287.247,421.329,287.231z M61.055,289.257c-12.824,0-25.281-0.001-36.445,5.662
		c-11.156,5.664-21.01,16.999-28.594,39.668c-1.644,4.874-2.513,9.073-2.627,12.719c-0.114,3.653,0.521,6.761,1.904,9.463
		c1.709,3.295,4.476,6.396,7.934,9.008c3.466,2.62,7.607,4.745,12.074,6.104c0.171,0.049,2.515,0.716,5.363,1.529
		c2.832,0.813,6.143,1.789,8.242,2.424c1.229,0.375,2.578,0.863,3.799,1.604c1.229,0.724,2.328,1.7,3.02,3.051
		c0.456,0.895,0.7,1.88,0.725,2.93c0.033,1.058-0.147,2.198-0.562,3.402c-1.042,3.076-2.62,5.061-5.631,6.273
		c-2.995,1.212-7.412,1.602-14.117,1.65h-83.697l-13.23,36.348H8.8c8.43,0,23.841,0.001,38.65-6.297
		c14.809-6.29,29.018-18.862,35.031-44.029c2.262-9.455,1.562-17.161-2.141-23.215c-3.719-6.046-10.44-10.439-20.229-13.246
		c0,0-2.188-0.637-4.768-1.377c-2.563-0.74-5.533-1.586-7.047-2.025c-2.506-0.716-4.435-2.165-5.574-4.012
		c-1.131-1.839-1.473-4.077-0.83-6.363c0.675-2.376,2.303-4.272,4.646-5.582c2.36-1.302,5.452-2.018,9.064-2.018h52.076
		c0.366-0.529,0.7-1.106,1.066-1.635c9.512-13.458,21.026-24.346,33.639-32.035H61.055z M295.124,289.257
		c-23.174,0-40.425,11.725-48.57,33.67l-39.367,108.164h43.127l20.229-55.6l38.113,0.025l10.846-29.781l-37.99-0.025l6.119-17.242
		c1.27-3.092,4.32-5.549,8.779-5.549c2.482,0,30.464,0.008,44.939,0.016c0.374-0.537,0.708-1.114,1.074-1.643
		c9.512-13.458,22.979-24.346,35.592-32.035H295.124L295.124,289.257z M495.196,289.335L443.55,431.178h43.867l18.771-49.928
		c0.92,2.059,11.994,49.928,11.994,49.928h46.121c0,0-8.389-35.176-14.557-49.383c-1.587-3.653-3.24-7.746-5.453-11.172
		c13.027-4.841,31.905-15.232,39.725-36.291c4.801-12.946,4.525-23.411-0.812-31.084c-6.469-9.317-19.635-13.89-40.262-13.914
		H495.196L495.196,289.335z M585.173,289.337c2.774,2.197,5.167,4.702,7.16,7.566c5.102,7.356,7.055,16.097,5.891,26.113h26.121
		l-39.367,108.197h39.334l39.391-108.197h50.539l12.262-33.68H585.173z M524.098,318.62h7.242
		c13.239,0.009,18.177,3.881,13.693,15.965c-4.207,11.343-11.774,18.35-26.16,18.35h-0.057l-7.445-0.008L524.098,318.62
		L524.098,318.62z M175.852,319.323h0.008c13.475,0.017,16.56,7.829,4.729,40.197h-0.002
		c-12.156,33.272-20.976,41.645-34.256,41.645h-0.025c-12.938-0.008-17.477-8.195-5.369-41.312
		C149.977,335.132,161.686,319.323,175.852,319.323L175.852,319.323z M410.979,319.323h0.016
		c13.467,0.017,16.558,7.829,4.719,40.197c-12.148,33.272-20.977,41.645-34.248,41.645h-0.031
		c-12.946-0.008-17.463-8.195-5.363-41.312C385.103,335.132,396.821,319.323,410.979,319.323L410.979,319.323z"/>
	<path id="path98" fill="#FFFFFF" d="M-38.138,446.122c-2.758,0-4.826,0.504-6.209,1.488c-1.375,1.009-2.531,2.791-3.467,5.371
		c-0.903,2.474-1.041,4.189-0.414,5.166c0.626,0.984,2.326,1.473,5.125,1.473c2.791,0,4.875-0.504,6.242-1.529
		c1.367-1.018,2.514-2.791,3.434-5.33c0.911-2.506,1.065-4.23,0.447-5.199C-33.582,446.601-35.306,446.122-38.138,446.122z
		 M-14.355,446.122c-2.799,0-4.874,0.504-6.232,1.488c-1.367,1.009-2.514,2.791-3.449,5.371c-0.895,2.474-1.042,4.189-0.439,5.166
		c0.61,0.984,2.302,1.473,5.102,1.473c2.791,0,4.874-0.504,6.266-1.529c1.383-1.018,2.537-2.791,3.465-5.33
		c0.911-2.506,1.05-4.23,0.424-5.199C-9.855,446.601-11.564,446.122-14.355,446.122z M429.626,464.573
		c-3.238,0-6.443,0.416-9.633,1.246c-3.189,0.838-6.152,2.099-8.887,3.783c-2.742,1.692-5.19,3.809-7.379,6.363
		c-2.181,2.562-3.883,5.533-5.111,8.902c-1.074,2.945-1.553,5.459-1.447,7.566c0.098,2.1,0.568,3.931,1.406,5.469
		c0.83,1.546,1.938,2.864,3.32,3.971c1.375,1.106,2.84,2.099,4.41,2.961c1.57,0.871,3.101,1.709,4.605,2.482
		c1.489,0.781,2.775,1.611,3.842,2.506c1.082,0.887,1.837,1.904,2.293,3.043c0.456,1.147,0.393,2.515-0.186,4.109
		c-0.505,1.375-1.213,2.629-2.133,3.752c-0.92,1.131-2.002,2.075-3.23,2.832c-1.245,0.766-2.62,1.358-4.158,1.773
		c-1.529,0.415-3.165,0.627-4.906,0.627c-2.652,0-4.874-0.303-6.664-0.904c-1.79-0.594-3.287-1.26-4.475-1.984
		c-1.18-0.725-2.132-1.385-2.832-1.986c-0.716-0.594-1.327-0.895-1.84-0.895c-0.358,0-0.707,0.098-1.057,0.301
		c-0.342,0.195-0.684,0.528-1.018,1c-0.334,0.473-0.676,1.091-1.025,1.855c-0.35,0.757-0.74,1.709-1.139,2.824
		c-0.61,1.676-0.978,2.953-1.1,3.84c-0.13,0.887-0.031,1.571,0.27,2.043c0.285,0.473,0.87,1.017,1.717,1.635
		c0.838,0.61,1.96,1.204,3.352,1.766s3.06,1.043,4.996,1.441c1.944,0.398,4.134,0.594,6.566,0.594c3.589,0,7.138-0.473,10.637-1.408
		c3.499-0.943,6.77-2.352,9.805-4.223c3.043-1.863,5.752-4.191,8.152-6.99c2.393-2.791,4.265-6.038,5.615-9.74
		c1.025-2.832,1.489-5.288,1.375-7.371s-0.595-3.905-1.449-5.443c-0.854-1.546-1.984-2.863-3.4-3.979
		c-1.408-1.099-2.906-2.092-4.477-2.963c-1.562-0.871-3.115-1.691-4.645-2.473s-2.849-1.621-3.955-2.508
		c-1.115-0.887-1.889-1.904-2.328-3.043c-0.432-1.139-0.366-2.498,0.203-4.061c0.383-1.05,0.938-2.042,1.67-2.994
		c0.716-0.943,1.586-1.748,2.611-2.416c1.025-0.667,2.181-1.195,3.482-1.578s2.734-0.57,4.297-0.57c1.993,0,3.743,0.236,5.232,0.732
		c1.489,0.488,2.757,1.024,3.807,1.635c1.05,0.594,1.92,1.147,2.604,1.66c0.691,0.513,1.238,0.758,1.629,0.758
		c0.407,0,0.757-0.106,1.074-0.326s0.627-0.561,0.928-1.033c0.293-0.472,0.593-1.074,0.918-1.799c0.317-0.716,0.676-1.61,1.059-2.66
		c0.342-0.943,0.609-1.74,0.797-2.367c0.203-0.643,0.325-1.165,0.391-1.58c0.057-0.415,0.073-0.756,0.041-1.008
		c-0.041-0.252-0.171-0.57-0.398-0.928s-0.807-0.814-1.734-1.359c-0.936-0.545-2.042-1.033-3.336-1.473
		c-1.286-0.432-2.725-0.773-4.295-1.025C432.906,464.696,431.286,464.573,429.626,464.573L429.626,464.573z M655.62,464.62
		c-5.55,0-10.887,0.854-16.029,2.562s-9.887,4.157-14.256,7.371c-4.354,3.215-8.251,7.111-11.66,11.701
		c-3.409,4.598-6.16,9.773-8.268,15.543c-2.026,5.582-3.035,10.586-2.994,14.988c0.017,4.41,1.018,8.153,2.979,11.213
		c1.969,3.068,4.881,5.402,8.746,7.021c3.849,1.611,8.592,2.416,14.215,2.416c1.929,0,3.875-0.088,5.844-0.268
		c1.969-0.188,3.953-0.457,5.955-0.814c2.01-0.366,3.964-0.798,5.893-1.311s3.563-0.99,4.914-1.463
		c1.351-0.48,2.367-1.124,3.051-1.938c0.667-0.813,1.213-1.766,1.604-2.855l10.203-28.023c0.261-0.732,0.407-1.376,0.424-1.938
		c0.024-0.562-0.057-1.041-0.26-1.439s-0.488-0.701-0.871-0.896c-0.383-0.203-0.863-0.309-1.441-0.309h-23.783
		c-0.325,0-0.651,0.105-0.977,0.309c-0.325,0.195-0.65,0.505-0.992,0.928c-0.325,0.415-0.668,0.961-1.01,1.66
		c-0.342,0.684-0.7,1.538-1.066,2.547c-0.716,1.969-1.042,3.353-0.977,4.166c0.073,0.822,0.431,1.229,1.082,1.229h13.338
		l-5.949,16.324c-1.603,0.725-3.255,1.269-4.947,1.635c-1.685,0.357-3.335,0.545-4.93,0.545c-3.271,0-6.063-0.528-8.383-1.578
		c-2.319-1.058-4.066-2.612-5.23-4.688c-1.172-2.059-1.734-4.63-1.693-7.689c0.049-3.067,0.805-6.623,2.27-10.643
		c1.335-3.67,3.084-7.014,5.24-10.041c2.148-3.027,4.598-5.623,7.34-7.787c2.75-2.156,5.721-3.824,8.902-5.004
		c3.189-1.172,6.485-1.766,9.895-1.766c3.189,0,5.874,0.326,8.055,0.977c2.164,0.65,3.988,1.366,5.461,2.123
		c1.457,0.766,2.597,1.473,3.41,2.123s1.455,0.977,1.936,0.977c0.317,0,0.635-0.088,0.936-0.268c0.31-0.188,0.619-0.506,0.953-0.953
		c0.325-0.455,0.667-1.064,1.033-1.83c0.374-0.757,0.748-1.661,1.131-2.719c0.659-1.814,1.05-3.18,1.164-4.107
		c0.13-0.92,0.031-1.636-0.27-2.148c-0.31-0.513-0.951-1.107-1.928-1.799c-0.984-0.684-2.311-1.334-3.963-1.928
		c-1.644-0.602-3.646-1.106-5.998-1.521C661.364,464.832,658.663,464.62,655.62,464.62z M210.731,465.489
		c-1.855,0-3.311,0.049-4.377,0.146c-1.066,0.09-1.896,0.334-2.498,0.732s-1.016,0.969-1.244,1.717
		c-0.236,0.74-0.423,1.766-0.578,3.076l-6.363,61.434c-0.105,0.879-0.082,1.57,0.049,2.1c0.138,0.521,0.52,0.919,1.146,1.195
		c0.626,0.269,1.547,0.455,2.768,0.545s2.881,0.131,4.98,0.131c2.001,0,3.62-0.041,4.865-0.131s2.286-0.283,3.1-0.576
		c0.806-0.285,1.473-0.691,1.994-1.221c0.513-0.521,1.018-1.205,1.506-2.043l26.908-44.623h0.105l-4.971,44.623
		c-0.138,0.879-0.138,1.57,0,2.1c0.13,0.521,0.512,0.919,1.139,1.195c0.626,0.269,1.545,0.455,2.766,0.545s2.865,0.131,4.932,0.131
		c1.847,0,3.393-0.041,4.621-0.131s2.278-0.276,3.133-0.545c0.862-0.276,1.587-0.674,2.148-1.195c0.578-0.529,1.139-1.221,1.668-2.1
		l38.465-61.271c0.813-1.343,1.391-2.408,1.732-3.182c0.333-0.789,0.374-1.375,0.121-1.773c-0.26-0.398-0.804-0.643-1.658-0.732
		c-0.862-0.098-2.091-0.146-3.678-0.146c-1.709,0-3.053,0.049-4.029,0.146c-0.977,0.09-1.766,0.252-2.359,0.488
		c-0.586,0.236-1.057,0.562-1.383,0.977c-0.333,0.424-0.667,0.918-0.984,1.496l-31.922,53.77h-0.105l6.209-53.557
		c0.114-0.716,0.128-1.303,0.039-1.742c-0.098-0.423-0.381-0.764-0.861-1s-1.214-0.392-2.223-0.465
		c-1.017-0.073-2.384-0.113-4.125-0.113c-1.636,0-2.962,0.049-3.971,0.146c-1.017,0.09-1.847,0.252-2.49,0.488
		c-0.651,0.236-1.172,0.568-1.562,1c-0.398,0.439-0.789,1.01-1.188,1.686l-32.328,53.557h-0.057l7.275-53.932
		c0.146-0.691,0.193-1.221,0.145-1.604c-0.041-0.383-0.275-0.674-0.715-0.869c-0.439-0.203-1.139-0.326-2.115-0.383
		C213.776,465.522,212.44,465.489,210.731,465.489L210.731,465.489z M380.559,465.493c-1.383,0-2.548,0.057-3.492,0.162
		c-0.943,0.114-1.732,0.261-2.359,0.439c-0.627,0.18-1.113,0.416-1.455,0.709s-0.578,0.619-0.717,0.977l-24.199,66.502
		c-0.13,0.366-0.139,0.693,0,0.986c0.122,0.285,0.422,0.521,0.902,0.699c0.488,0.188,1.164,0.334,2.051,0.439
		c0.879,0.105,2.018,0.162,3.393,0.162c1.416,0,2.597-0.057,3.549-0.162c0.944-0.105,1.724-0.252,2.326-0.439
		c0.618-0.179,1.092-0.414,1.441-0.699c0.334-0.293,0.569-0.62,0.699-0.986l24.207-66.502c0.139-0.357,0.138-0.684,0.008-0.977
		s-0.438-0.529-0.918-0.709c-0.472-0.179-1.147-0.325-2.01-0.439C383.115,465.55,381.967,465.493,380.559,465.493L380.559,465.493z
		 M-54.82,465.495c-1.416,0-2.595,0.059-3.547,0.164c-0.944,0.114-1.735,0.261-2.361,0.439c-0.626,0.18-1.106,0.414-1.424,0.707
		c-0.326,0.285-0.553,0.611-0.691,0.977l-15.582,42.832c-1.636,4.5-2.424,8.424-2.359,11.775c0.073,3.361,0.902,6.158,2.521,8.404
		c1.611,2.254,3.979,3.931,7.096,5.037c3.108,1.107,6.884,1.66,11.311,1.66c4.72,0,9.113-0.619,13.189-1.848
		c4.077-1.236,7.78-3.025,11.1-5.385c3.328-2.352,6.25-5.24,8.756-8.658c2.514-3.409,4.557-7.268,6.127-11.588l15.371-42.23
		c0.138-0.366,0.137-0.691,0.023-0.977c-0.106-0.293-0.399-0.527-0.879-0.707c-0.48-0.179-1.138-0.325-1.992-0.439
		c-0.846-0.105-1.962-0.164-3.346-0.164c-1.375,0-2.545,0.059-3.514,0.164c-0.96,0.114-1.743,0.261-2.361,0.439
		c-0.61,0.18-1.073,0.414-1.398,0.707c-0.326,0.285-0.545,0.61-0.684,0.977l-15.428,42.395c-0.895,2.466-2.043,4.671-3.41,6.615
		c-1.383,1.945-2.93,3.57-4.646,4.889c-1.717,1.326-3.587,2.328-5.621,3.027c-2.018,0.684-4.159,1.033-6.404,1.033
		c-2.221,0-4.102-0.332-5.656-1.008c-1.546-0.676-2.718-1.677-3.523-3.02c-0.797-1.342-1.17-3.035-1.113-5.094
		c0.057-2.042,0.594-4.467,1.611-7.266l15.135-41.572c0.13-0.366,0.13-0.691,0-0.977c-0.13-0.293-0.432-0.527-0.912-0.707
		c-0.48-0.179-1.155-0.325-2.018-0.439C-52.321,465.553-53.445,465.495-54.82,465.495L-54.82,465.495z M473.167,465.497
		c-1.416,0-2.595,0.057-3.547,0.162c-0.943,0.105-1.732,0.253-2.359,0.432c-0.627,0.188-1.108,0.424-1.434,0.709
		c-0.325,0.293-0.545,0.619-0.684,0.984l-15.582,42.824c-1.636,4.5-2.425,8.432-2.352,11.783c0.057,3.361,0.895,6.158,2.506,8.404
		c1.619,2.254,3.98,3.931,7.105,5.037c3.108,1.107,6.882,1.66,11.309,1.66c4.711,0,9.106-0.619,13.191-1.848
		c4.076-1.236,7.77-3.027,11.098-5.387s6.241-5.238,8.756-8.656c2.515-3.409,4.549-7.275,6.127-11.588l15.371-42.23
		c0.139-0.365,0.138-0.691,0.023-0.984c-0.114-0.285-0.396-0.521-0.877-0.709c-0.48-0.179-1.14-0.326-1.994-0.432
		c-0.847-0.105-1.969-0.162-3.344-0.162s-2.547,0.057-3.516,0.162c-0.96,0.105-1.741,0.253-2.359,0.432
		c-0.61,0.188-1.083,0.424-1.4,0.709c-0.325,0.293-0.545,0.619-0.684,0.984l-15.428,42.393c-0.903,2.466-2.043,4.671-3.41,6.615
		c-1.384,1.945-2.928,3.564-4.645,4.891s-3.589,2.328-5.623,3.02c-2.026,0.691-4.175,1.041-6.412,1.041
		c-2.213,0-4.093-0.34-5.646-1.008c-1.546-0.676-2.726-1.677-3.531-3.02c-0.798-1.342-1.173-3.043-1.107-5.094
		c0.049-2.042,0.594-4.467,1.611-7.266l15.127-41.572c0.139-0.365,0.13-0.691,0-0.984c-0.122-0.285-0.433-0.521-0.904-0.709
		c-0.48-0.179-1.155-0.326-2.018-0.432C475.665,465.553,474.542,465.497,473.167,465.497L473.167,465.497z M595.534,465.602
		c-1.31,0-2.393,0.049-3.271,0.139c-0.862,0.09-1.586,0.244-2.18,0.463c-0.586,0.22-1.042,0.473-1.359,0.758
		c-0.325,0.293-0.554,0.619-0.684,0.984l-12.035,33.035c-0.903,2.506-1.829,5.135-2.781,7.885c-0.952,2.759-1.839,5.41-2.645,7.949
		h-0.059c-0.13-1.456-0.259-2.902-0.43-4.352c-0.163-1.456-0.327-2.93-0.506-4.436c-0.179-1.514-0.39-3.01-0.617-4.516
		c-0.236-1.514-0.464-3.043-0.691-4.605l-4.346-25.738c-0.171-1.416-0.416-2.602-0.717-3.562c-0.31-0.96-0.732-1.709-1.27-2.254
		c-0.554-0.545-1.253-0.945-2.107-1.182s-1.977-0.35-3.352-0.35h-7.674c-1.448,0-2.83,0.432-4.141,1.277
		c-1.31,0.854-2.271,2.133-2.889,3.842l-23.037,63.289c-0.139,0.358-0.163,0.691-0.098,0.984c0.09,0.285,0.326,0.529,0.717,0.725
		c0.407,0.203,1.001,0.359,1.799,0.473c0.798,0.105,1.822,0.162,3.092,0.162c1.302,0,2.393-0.057,3.279-0.162
		c0.871-0.113,1.587-0.27,2.148-0.473c0.562-0.195,0.991-0.439,1.309-0.725c0.293-0.293,0.515-0.626,0.645-0.984l13.418-36.844
		c1.001-2.758,1.944-5.436,2.807-8.023c0.879-2.596,1.716-5.2,2.521-7.812h0.105c0.049,2.141,0.196,4.348,0.424,6.617
		c0.22,2.262,0.488,4.377,0.789,6.338l5.541,32.922c0.252,1.814,0.529,3.297,0.83,4.436c0.317,1.14,0.74,2.05,1.27,2.717
		c0.545,0.676,1.221,1.141,2.051,1.393c0.838,0.261,1.889,0.381,3.166,0.381h6.086c0.691,0,1.407-0.098,2.156-0.301
		c0.74-0.195,1.44-0.52,2.092-0.951c0.643-0.439,1.229-0.984,1.758-1.627c0.529-0.658,0.943-1.4,1.244-2.238l23.043-63.289
		c0.13-0.365,0.163-0.691,0.082-0.984c-0.073-0.285-0.302-0.537-0.676-0.758c-0.374-0.219-0.96-0.373-1.766-0.463
		C597.779,465.651,596.762,465.602,595.534,465.602L595.534,465.602z M87.44,465.821c-1.204,0-2.336,0.352-3.418,1.059
		c-1.074,0.717-1.895,1.862-2.48,3.457l-22.344,61.385c-0.578,1.604-0.587,2.752-0.025,3.459c0.562,0.708,1.441,1.066,2.629,1.066
		h35.371c0.333,0,0.667-0.107,1.018-0.311c0.333-0.195,0.684-0.504,1.018-0.943c0.35-0.439,0.683-1.009,1.041-1.717
		c0.342-0.707,0.708-1.587,1.09-2.637c0.382-1.049,0.651-1.937,0.83-2.637c0.163-0.707,0.235-1.285,0.211-1.725
		c-0.016-0.432-0.139-0.748-0.334-0.951c-0.195-0.188-0.463-0.293-0.789-0.293H75.903l7.225-19.863h21.279
		c0.326,0,0.658-0.088,1-0.275c0.333-0.179,0.668-0.481,1.002-0.896c0.333-0.414,0.674-0.967,1.008-1.658
		c0.35-0.691,0.708-1.563,1.09-2.613c0.375-1.018,0.644-1.88,0.807-2.588c0.171-0.699,0.236-1.26,0.203-1.684
		c-0.024-0.414-0.138-0.732-0.342-0.928s-0.456-0.301-0.789-0.301h-21.27l6.248-17.193h25.145c0.333,0,0.659-0.098,0.984-0.301
		s0.658-0.514,1-0.953c0.342-0.432,0.675-1.009,1.025-1.717c0.35-0.699,0.708-1.562,1.082-2.588
		c0.399-1.082,0.675-1.977,0.846-2.693c0.163-0.699,0.245-1.284,0.229-1.74c-0.024-0.447-0.121-0.764-0.316-0.943
		c-0.179-0.179-0.44-0.277-0.766-0.277H87.44L87.44,465.821z M146.493,465.821c-1.196,0-2.334,0.352-3.408,1.059
		c-1.074,0.717-1.905,1.862-2.482,3.457l-23.271,63.949c-0.13,0.366-0.147,0.691-0.033,0.977c0.114,0.293,0.406,0.528,0.895,0.707
		c0.472,0.18,1.156,0.334,2.043,0.439c0.879,0.105,2.009,0.162,3.393,0.162c1.408,0,2.597-0.057,3.541-0.162
		c0.952-0.105,1.732-0.26,2.334-0.439c0.61-0.179,1.09-0.414,1.432-0.707c0.333-0.285,0.579-0.61,0.709-0.977l9.764-26.836h4.469
		c1.514,0,2.773,0.234,3.766,0.715c0.984,0.473,1.759,1.164,2.312,2.092s0.934,2.076,1.162,3.459
		c0.228,1.375,0.392,2.953,0.514,4.734l0.586,15.721c-0.016,0.439,0.031,0.814,0.129,1.115c0.114,0.31,0.392,0.57,0.848,0.766
		c0.448,0.203,1.113,0.333,1.992,0.406c0.887,0.073,2.083,0.113,3.613,0.113c1.814,0,3.264-0.039,4.338-0.113
		c1.082-0.072,1.919-0.195,2.529-0.375c0.619-0.188,1.043-0.415,1.287-0.684c0.244-0.268,0.439-0.609,0.586-1.008
		c0.13-0.357,0.219-0.863,0.268-1.498s0.056-1.643,0.016-3.018l-0.887-13.875c-0.082-1.668-0.244-3.164-0.488-4.49
		c-0.236-1.318-0.586-2.508-1.025-3.541s-0.983-1.91-1.65-2.635c-0.659-0.732-1.416-1.343-2.295-1.848
		c2.433-0.691,4.703-1.604,6.818-2.727s4.027-2.449,5.744-3.979c1.717-1.521,3.223-3.246,4.533-5.191
		c1.302-1.937,2.383-4.086,3.246-6.445c1.017-2.799,1.498-5.271,1.457-7.436c-0.057-2.156-0.585-4.021-1.586-5.6
		s-2.458-2.855-4.379-3.832c-1.904-0.984-4.199-1.676-6.893-2.074c-0.936-0.105-1.984-0.196-3.164-0.27
		c-1.172-0.072-2.678-0.113-4.525-0.113H146.493L146.493,465.821z M318.436,465.821c-1.196,0-2.336,0.352-3.41,1.059
		c-1.074,0.717-1.905,1.862-2.482,3.457L290.2,531.721c-0.578,1.604-0.594,2.752-0.041,3.459c0.57,0.708,1.448,1.066,2.645,1.066
		h35.371c0.333,0,0.668-0.107,1.01-0.311c0.351-0.195,0.685-0.504,1.018-0.943c0.358-0.439,0.699-1.009,1.041-1.717
		c0.351-0.707,0.716-1.587,1.098-2.637h0.002c0.383-1.049,0.657-1.937,0.828-2.637c0.155-0.707,0.237-1.285,0.205-1.725
		c-0.017-0.432-0.13-0.748-0.334-0.951c-0.195-0.188-0.464-0.293-0.789-0.293h-25.355l7.227-19.863h21.277
		c0.334,0,0.658-0.088,1-0.275c0.342-0.179,0.676-0.481,1.01-0.896c0.334-0.414,0.668-0.967,1.01-1.658s0.707-1.563,1.09-2.613
		c0.366-1.018,0.634-1.88,0.797-2.588c0.171-0.699,0.243-1.26,0.211-1.684c-0.024-0.414-0.145-0.732-0.34-0.928
		c-0.203-0.195-0.466-0.301-0.791-0.301H318.11l6.258-17.193h25.135c0.325,0,0.658-0.098,0.992-0.301
		c0.317-0.203,0.658-0.514,0.992-0.953c0.342-0.432,0.691-1.009,1.025-1.717c0.358-0.699,0.718-1.562,1.092-2.588
		c0.398-1.082,0.667-1.977,0.838-2.693c0.171-0.699,0.243-1.284,0.227-1.74c-0.017-0.447-0.121-0.764-0.309-0.943
		c-0.188-0.179-0.439-0.277-0.773-0.277H318.436L318.436,465.821z M19.903,465.825c-1.196,0-2.336,0.352-3.41,1.059
		c-1.074,0.709-1.896,1.854-2.482,3.457l-22.344,61.385c-0.578,1.596-0.595,2.744-0.033,3.451c0.562,0.709,1.44,1.066,2.637,1.066
		h18.725c2.824,0,5.46-0.172,7.885-0.521c2.433-0.342,4.792-0.879,7.086-1.604c2.294-0.724,4.493-1.65,6.592-2.773
		c2.1-1.123,4.028-2.465,5.818-4.02c1.782-1.562,3.384-3.37,4.816-5.396c1.432-2.033,2.604-4.295,3.516-6.801
		c0.871-2.393,1.294-4.558,1.27-6.478c-0.033-1.92-0.408-3.595-1.141-5.027c-0.732-1.432-1.774-2.604-3.133-3.516
		c-1.359-0.902-2.961-1.546-4.824-1.904c1.766-0.577,3.434-1.343,4.996-2.287c1.562-0.943,2.978-2.033,4.264-3.262
		c1.277-1.236,2.408-2.604,3.393-4.109c0.984-1.505,1.782-3.107,2.408-4.816c1.115-3.043,1.53-5.697,1.262-7.943
		c-0.269-2.254-1.164-4.117-2.678-5.582c-1.514-1.473-3.637-2.57-6.371-3.295c-2.726-0.724-6.248-1.082-10.561-1.082H19.903z
		 M25.801,476.542h7.234c2.213,0,3.906,0.203,5.086,0.602s2.066,0.969,2.668,1.717c0.602,0.74,0.911,1.676,0.936,2.799
		c0.024,1.131-0.212,2.393-0.725,3.809c-0.464,1.277-1.106,2.475-1.92,3.621c-0.822,1.14-1.789,2.141-2.92,2.994
		c-1.123,0.854-2.393,1.521-3.801,2.01c-1.416,0.488-3.149,0.74-5.225,0.74h-7.99L25.801,476.542z M152.579,476.757h6.42
		c1.636,0,2.898,0.066,3.785,0.172s1.651,0.252,2.311,0.422c2.156,0.668,3.474,1.782,3.945,3.385
		c0.472,1.596,0.277,3.557-0.561,5.875c-0.562,1.521-1.31,2.906-2.27,4.135c-0.952,1.237-2.109,2.303-3.443,3.189
		c-1.343,0.887-2.855,1.57-4.564,2.066c-1.701,0.488-3.563,0.732-5.598,0.732h-7.291L152.579,476.757z M15.337,505.282h8.488
		c2.612,0,4.645,0.235,6.109,0.707c1.457,0.473,2.564,1.14,3.305,2.01c0.724,0.871,1.13,1.953,1.203,3.238
		c0.082,1.286-0.177,2.744-0.771,4.379c-0.569,1.57-1.351,2.954-2.352,4.166c-1.017,1.213-2.165,2.229-3.459,3.043
		c-1.294,0.822-2.701,1.433-4.215,1.855c-1.514,0.424-3.263,0.617-5.248,0.617H8.055L15.337,505.282z"/>
</g>
</svg>
